<svg xmlns="http://www.w3.org/2000/svg" xmlns:xlink="http://www.w3.org/1999/xlink" width="1920" zoomAndPan="magnify" viewBox="0 0 1440 809.999993" height="1080" preserveAspectRatio="xMidYMid meet" version="1.2"><g id="9daa868f1c"><rect x="0" width="1440" y="0" height="809.999993" style="fill:#ffffff;fill-opacity:1;stroke:none;"/><rect x="0" width="1440" y="0" height="809.999993" style="fill:#ffffff;fill-opacity:1;stroke:none;"/><path style=" stroke:none;fill-rule:nonzero;fill:#d15353;fill-opacity:1;" d="M 595.15625 869.78125 C 578.199219 869.78125 560.449219 862.199219 548.503906 850.496094 C 528.175781 830.558594 519.546875 802.234375 512.460938 774.941406 L 511.261719 770.304688 C 504.628906 744.621094 497.773438 718.070312 481.4375 697.234375 C 458.898438 668.507812 417.742188 652.632812 373.996094 655.816406 C 332.882812 658.8125 293.753906 676.714844 260.890625 693.828125 C 253.28125 697.800781 245.570312 701.933594 238.121094 705.945312 C 210.714844 720.679688 182.382812 735.910156 152.375 745.769531 C 132.054688 752.441406 111.8125 755.324219 93.851562 754.105469 C 72.402344 752.644531 54.964844 745.496094 42.003906 732.878906 C 20.390625 711.820312 13.054688 677.054688 20.210938 629.5625 C 22.953125 611.335938 26.933594 593.023438 30.785156 575.300781 C 35.953125 551.472656 41.308594 526.839844 43.707031 502.183594 C 47.144531 466.792969 45.035156 416.738281 15.53125 379.324219 C -10.332031 346.511719 -55.902344 327.269531 -106.492188 327.824219 C -149.632812 328.300781 -190.789062 341.089844 -239.3125 360.152344 L -239.683594 359.214844 C -191.058594 340.113281 -149.804688 327.292969 -106.5 326.816406 C -55.667969 326.242188 -9.726562 345.648438 16.328125 378.699219 C 46.042969 416.386719 48.160156 466.703125 44.714844 502.285156 C 42.316406 526.988281 36.960938 551.65625 31.78125 575.511719 C 27.941406 593.214844 23.960938 611.519531 21.226562 629.703125 C 14.132812 676.863281 21.359375 711.335938 42.726562 732.152344 C 66.082031 754.902344 106.957031 759.628906 152.074219 744.8125 C 182 734.984375 210.292969 719.761719 237.660156 705.058594 C 245.109375 701.046875 252.820312 696.902344 260.4375 692.941406 C 293.390625 675.777344 332.640625 657.824219 373.9375 654.808594 C 417.992188 651.605469 459.492188 667.621094 482.242188 696.609375 C 498.710938 717.605469 505.597656 744.265625 512.25 770.050781 L 513.449219 774.6875 C 520.503906 801.84375 529.070312 830.015625 549.222656 849.769531 C 568.65625 868.832031 603.703125 876.804688 624.898438 858.308594 L 625.566406 859.066406 C 617.007812 866.523438 606.253906 869.769531 595.164062 869.78125 Z M 595.15625 869.78125 "/><path style=" stroke:none;fill-rule:nonzero;fill:#d15353;fill-opacity:1;" d="M 585.761719 868.035156 C 568.988281 868.035156 551.609375 860.636719 539.785156 849.558594 C 519.40625 830.46875 510.234375 803.234375 502.574219 776.984375 C 502.070312 775.273438 501.574219 773.558594 501.082031 771.835938 C 495.144531 751.324219 489.003906 730.105469 477.714844 711.941406 C 475.4375 708.28125 472.988281 704.796875 470.429688 701.601562 C 447.730469 673.226562 408.417969 657.332031 365.296875 659.09375 C 327.902344 660.617188 293.449219 674.292969 267.605469 686.046875 C 263.945312 687.710938 260.195312 689.453125 256.144531 691.390625 C 248.664062 694.957031 241.117188 698.695312 233.808594 702.304688 C 207.832031 715.15625 180.972656 728.433594 152.578125 736.667969 C 131.691406 742.714844 79.578125 753.238281 47.011719 720.359375 C 44.652344 717.96875 42.425781 715.390625 40.410156 712.667969 C 24.746094 691.539062 19.394531 659.902344 24.484375 618.625 C 26.632812 601.265625 29.835938 583.847656 32.941406 567.015625 C 37.304688 543.347656 41.8125 518.886719 43.34375 494.523438 C 45.347656 462.894531 41.679688 434.769531 32.457031 410.921875 C 27.398438 397.839844 20.613281 386.097656 12.289062 376.027344 C -13.738281 344.527344 -58.945312 326 -108.679688 326.527344 C -151.222656 326.960938 -191.925781 339.195312 -239.964844 357.441406 L -240.328125 356.503906 C -192.1875 338.21875 -151.386719 325.949219 -108.6875 325.519531 C -58.703125 324.984375 -13.152344 343.652344 13.0625 375.382812 C 21.449219 385.542969 28.292969 397.375 33.394531 410.558594 C 42.679688 434.539062 46.355469 462.8125 44.351562 494.582031 C 42.808594 519.007812 38.292969 543.5 33.929688 567.199219 C 30.824219 584.019531 27.617188 601.417969 25.480469 618.746094 C 20.421875 659.75 25.722656 691.148438 41.214844 712.0625 C 43.203125 714.742188 45.390625 717.292969 47.71875 719.644531 C 79.902344 752.140625 131.570312 741.695312 152.285156 735.691406 C 180.597656 727.484375 207.421875 714.21875 233.355469 701.386719 C 240.664062 697.78125 248.210938 694.039062 255.703125 690.460938 C 259.765625 688.527344 263.511719 686.773438 267.183594 685.109375 C 293.105469 673.328125 327.679688 659.597656 365.246094 658.066406 C 385.375 657.25 405.527344 660.425781 423.519531 667.269531 C 443.023438 674.675781 459.511719 686.328125 471.203125 700.945312 C 473.785156 704.171875 476.265625 707.6875 478.554688 711.378906 C 489.902344 729.660156 496.070312 750.941406 502.027344 771.523438 C 502.523438 773.246094 503.027344 774.960938 503.519531 776.671875 C 511.140625 802.800781 520.261719 829.882812 540.453125 848.792969 C 559.664062 866.804688 593.792969 874.960938 615.425781 856.746094 L 616.070312 857.523438 C 607.359375 864.851562 596.675781 868.003906 585.738281 868.003906 Z M 585.761719 868.035156 "/><path style=" stroke:none;fill-rule:nonzero;fill:#d15353;fill-opacity:1;" d="M 576.226562 866.140625 C 573.664062 866.140625 571.054688 865.96875 568.414062 865.636719 C 554.804688 863.894531 541.1875 857.695312 531.046875 848.640625 C 510.617188 830.398438 500.890625 804.25 492.675781 779.042969 C 492.058594 777.148438 491.445312 775.242188 490.828125 773.328125 C 484.511719 753.773438 477.976562 733.550781 466.730469 716.074219 C 464.429688 712.507812 461.972656 709.109375 459.421875 705.984375 C 437.09375 678.648438 399.113281 662.390625 357.65625 662.390625 C 357.304688 662.390625 356.953125 662.390625 356.589844 662.390625 C 320.320312 662.632812 287.179688 674.273438 262.363281 684.382812 C 258.875 685.804688 255.289062 687.308594 251.386719 688.980469 C 244.089844 692.113281 236.742188 695.410156 229.636719 698.585938 C 205.050781 709.59375 179.621094 720.964844 152.769531 727.59375 C 132.832031 732.515625 83.097656 740.4375 52.011719 707.871094 C 49.742188 705.492188 47.597656 702.910156 45.640625 700.210938 C 30.378906 679.0625 24.855469 648.8125 28.757812 607.726562 C 30.332031 591.320312 32.789062 574.886719 35.167969 559.011719 C 38.695312 535.425781 42.34375 511.042969 43 486.894531 C 43.835938 456.261719 39.363281 429.136719 29.695312 406.277344 C 24.371094 393.695312 17.4375 382.425781 9.0625 372.761719 C -17.136719 342.5625 -61.96875 324.75 -110.847656 325.253906 C -152.789062 325.648438 -193.046875 337.332031 -240.601562 354.769531 L -240.945312 353.820312 C -193.296875 336.351562 -152.9375 324.640625 -110.855469 324.246094 C -87.734375 324.054688 -64.800781 327.925781 -44.5625 335.496094 C -22.304688 343.832031 -4.011719 356.140625 9.828125 372.097656 C 18.273438 381.84375 25.269531 393.203125 30.632812 405.871094 C 40.359375 428.863281 44.863281 456.128906 44.019531 486.914062 C 43.363281 511.125 39.703125 535.546875 36.167969 559.152344 C 33.789062 575.019531 31.339844 591.429688 29.765625 607.820312 C 25.886719 648.652344 31.347656 678.679688 46.46875 699.613281 C 48.394531 702.285156 50.507812 704.824219 52.757812 707.175781 C 83.480469 739.359375 132.769531 731.488281 152.546875 726.617188 C 179.308594 720.003906 204.6875 708.644531 229.242188 697.660156 C 236.347656 694.472656 243.707031 691.1875 251.015625 688.042969 C 254.914062 686.371094 258.511719 684.859375 262 683.4375 C 286.90625 673.285156 320.160156 661.613281 356.597656 661.371094 C 398.78125 661.101562 437.507812 677.519531 460.21875 705.328125 C 462.796875 708.484375 465.277344 711.910156 467.597656 715.511719 C 478.914062 733.097656 485.46875 753.390625 491.796875 773.003906 C 492.414062 774.910156 493.027344 776.816406 493.640625 778.710938 C 501.804688 803.789062 511.484375 829.792969 531.734375 847.875 C 550.8125 864.929688 584.632812 872.589844 605.988281 855.253906 L 606.625 856.039062 C 598.46875 862.664062 587.886719 866.140625 576.234375 866.140625 Z M 576.226562 866.140625 "/><path style=" stroke:none;fill-rule:nonzero;fill:#d15353;fill-opacity:1;" d="M 566.992188 864.285156 C 550.8125 864.285156 534.113281 857.714844 522.328125 847.695312 C 501.828125 830.277344 491.554688 805.230469 482.785156 781.066406 C 482.03125 778.972656 481.265625 776.863281 480.507812 774.75 C 473.835938 756.171875 466.941406 736.960938 455.753906 720.175781 C 453.445312 716.699219 450.976562 713.394531 448.425781 710.328125 C 426.109375 683.546875 388.519531 666.84375 347.890625 665.644531 C 312.792969 664.609375 280.949219 674.203125 257.132812 682.671875 C 253.796875 683.859375 250.371094 685.121094 246.648438 686.519531 C 239.585938 689.191406 232.476562 692.003906 225.613281 694.714844 C 202.371094 703.910156 178.328125 713.414062 152.980469 718.472656 C 135.21875 722 117.769531 722.363281 102.519531 719.511719 C 83.863281 716.023438 68.5625 707.890625 57.042969 695.339844 C 54.855469 692.960938 52.789062 690.390625 50.894531 687.699219 C 36.246094 666.84375 30.410156 637.109375 33.050781 596.78125 C 34.070312 581.421875 35.8125 566.089844 37.496094 551.25 C 40.300781 526.558594 42.949219 503.230469 42.667969 479.203125 C 42.34375 449.566406 37.054688 423.441406 26.933594 401.558594 C 21.359375 389.492188 14.261719 378.6875 5.835938 369.433594 C -20.59375 340.457031 -63.199219 323.914062 -111.257812 323.914062 C -111.84375 323.914062 -112.429688 323.914062 -113.011719 323.914062 C -158.964844 324.296875 -203.296875 338.621094 -241.234375 352.015625 L -241.570312 351.070312 C -203.546875 337.652344 -159.136719 323.300781 -113.023438 322.90625 C -63.933594 322.492188 -20.359375 339.207031 6.582031 368.75 C 15.078125 378.074219 22.234375 388.96875 27.851562 401.136719 C 38.019531 423.148438 43.34375 449.40625 43.675781 479.183594 C 43.949219 503.273438 41.175781 527.714844 38.496094 551.351562 C 36.8125 566.167969 35.078125 581.492188 34.050781 596.832031 C 31.429688 636.917969 37.203125 666.453125 51.710938 687.105469 C 53.574219 689.757812 55.621094 692.296875 57.777344 694.644531 C 87.027344 726.496094 133.960938 721.226562 152.777344 717.476562 C 178.039062 712.4375 202.027344 702.941406 225.230469 693.769531 C 232.105469 691.046875 239.210938 688.246094 246.285156 685.5625 C 250.007812 684.164062 253.445312 682.890625 256.789062 681.714844 C 280.6875 673.207031 312.652344 663.589844 347.921875 664.628906 C 388.832031 665.835938 426.691406 682.671875 449.199219 709.675781 C 451.769531 712.757812 454.261719 716.105469 456.597656 719.601562 C 467.859375 736.484375 474.773438 755.757812 481.464844 774.394531 C 482.222656 776.511719 482.976562 778.617188 483.742188 780.707031 C 492.460938 804.746094 502.671875 829.652344 522.984375 846.910156 C 542.347656 863.367188 575.15625 870.40625 596.535156 853.703125 L 597.160156 854.5 C 588.421875 861.324219 577.828125 864.265625 567.003906 864.265625 Z M 566.992188 864.285156 "/><path style=" stroke:none;fill-rule:nonzero;fill:#d15353;fill-opacity:1;" d="M 557.40625 862.410156 C 555.066406 862.410156 552.679688 862.28125 550.269531 862.007812 C 537.125 860.527344 523.761719 854.972656 513.589844 846.777344 C 492.996094 830.1875 482.191406 806.238281 472.886719 783.125 C 471.949219 780.804688 471.023438 778.46875 470.085938 776.117188 C 463.089844 758.539062 455.851562 740.355469 444.753906 724.308594 C 442.417969 720.921875 439.9375 717.6875 437.40625 714.714844 C 415.292969 688.738281 378.574219 671.632812 339.171875 668.941406 C 305.273438 666.625 274.710938 674.171875 251.871094 681.007812 C 248.65625 681.964844 245.378906 682.984375 241.871094 684.101562 C 235.089844 686.277344 228.292969 688.566406 221.722656 690.792969 C 198.75 698.554688 177.058594 705.894531 153.152344 709.402344 C 130.753906 712.667969 89.125 713.554688 62.019531 682.851562 C 59.914062 680.472656 57.917969 677.914062 56.09375 675.242188 C 41.882812 654.425781 35.914062 626.03125 37.296875 585.886719 C 37.800781 571.703125 38.867188 557.582031 39.90625 543.925781 C 41.78125 519.078125 43.554688 495.601562 42.292969 471.582031 C 40.804688 442.957031 34.695312 417.828125 24.140625 396.921875 C 18.316406 385.371094 11.058594 375.027344 2.570312 366.179688 C -24.351562 338.167969 -67.292969 322.300781 -115.21875 322.664062 C -160.5 322.996094 -204.355469 336.617188 -241.902344 349.355469 L -242.222656 348.398438 C -204.597656 335.636719 -160.660156 321.988281 -115.21875 321.65625 C -66.96875 321.304688 -23.796875 337.269531 3.304688 365.484375 C 11.863281 374.394531 19.171875 384.828125 25.046875 396.46875 C 35.664062 417.503906 41.8125 442.765625 43.300781 471.53125 C 44.574219 495.621094 42.789062 519.117188 40.914062 544.003906 C 39.886719 557.652344 38.816406 571.773438 38.304688 585.925781 C 36.921875 625.851562 42.839844 654.054688 56.921875 674.675781 C 58.722656 677.316406 60.691406 679.839844 62.765625 682.195312 C 89.558594 712.546875 130.792969 711.660156 153 708.414062 C 176.816406 704.917969 198.480469 697.597656 221.398438 689.855469 C 227.972656 687.628906 234.777344 685.339844 241.558594 683.164062 C 245.078125 682.035156 248.351562 681.027344 251.578125 680.058594 C 274.5 673.207031 305.171875 665.636719 339.242188 667.953125 C 378.90625 670.65625 415.886719 687.902344 438.171875 714.078125 C 440.734375 717.082031 443.222656 720.339844 445.59375 723.753906 C 456.75 739.894531 464.007812 758.125 471.023438 775.765625 C 471.960938 778.113281 472.886719 780.441406 473.824219 782.773438 C 483.078125 805.753906 493.8125 829.570312 514.226562 846.011719 C 533.183594 861.300781 565.15625 868.671875 587.070312 852.21875 L 587.675781 853.027344 C 579.46875 859.1875 568.917969 862.441406 557.40625 862.441406 Z M 557.40625 862.410156 "/><path style=" stroke:none;fill-rule:nonzero;fill:#d15353;fill-opacity:1;" d="M 548.253906 860.554688 C 532.429688 860.554688 516.300781 854.570312 504.871094 845.851562 C 484.167969 830.074219 472.402344 806.257812 463.011719 785.171875 C 461.871094 782.609375 460.730469 780.019531 459.582031 777.417969 C 452.296875 760.847656 444.765625 743.722656 433.789062 728.433594 C 431.421875 725.125 428.941406 721.980469 426.410156 719.078125 C 404.519531 693.917969 368.652344 676.402344 330.472656 672.21875 C 297.835938 668.640625 268.523438 674.132812 246.628906 679.324219 C 243.585938 680.050781 240.472656 680.816406 237.125 681.671875 C 230.714844 683.324219 224.304688 685.078125 218.113281 686.773438 C 196.414062 692.71875 175.910156 698.335938 153.351562 700.300781 C 132.136719 702.125 92.714844 700.652344 67.039062 670.332031 C 65.023438 667.964844 63.109375 665.402344 61.335938 662.742188 C 43.523438 635.859375 41.527344 599.765625 41.589844 574.949219 C 41.640625 562.117188 42.101562 549.347656 42.546875 537 C 43.453125 511.832031 44.3125 488.050781 41.972656 463.910156 C 39.320312 436.292969 32.394531 412.171875 21.398438 392.226562 C 15.320312 381.175781 7.902344 371.308594 -0.632812 362.871094 C -27.71875 336.183594 -70.304688 321.023438 -117.378906 321.355469 C -161.988281 321.648438 -205.363281 334.558594 -242.527344 346.632812 L -242.839844 345.675781 C -205.605469 333.570312 -162.140625 320.628906 -117.386719 320.347656 C -69.992188 320.0625 -27.203125 335.273438 0.0703125 362.15625 C 8.679688 370.652344 16.148438 380.613281 22.277344 391.742188 C 33.332031 411.808594 40.300781 436.0625 42.96875 463.8125 C 45.320312 488.023438 44.460938 511.832031 43.554688 537.039062 C 43.109375 549.375 42.648438 562.136719 42.597656 574.960938 C 42.546875 599.644531 44.511719 635.539062 62.183594 662.199219 C 63.925781 664.828125 65.820312 667.347656 67.816406 669.6875 C 93.195312 699.664062 132.253906 701.117188 153.273438 699.300781 C 175.738281 697.347656 196.191406 691.742188 217.851562 685.804688 C 224.050781 684.101562 230.460938 682.347656 236.882812 680.695312 C 240.238281 679.839844 243.355469 679.0625 246.40625 678.347656 C 268.382812 673.144531 297.804688 667.632812 330.59375 671.21875 C 369.015625 675.421875 405.121094 693.074219 427.175781 718.421875 C 429.726562 721.355469 432.226562 724.519531 434.617188 727.847656 C 445.652344 743.21875 453.203125 760.40625 460.511719 777.015625 C 461.648438 779.605469 462.789062 782.195312 463.925781 784.757812 C 473.28125 805.734375 484.972656 829.410156 505.484375 845.042969 C 524.304688 859.398438 555.976562 866.25 577.617188 850.667969 L 578.199219 851.484375 C 569.351562 857.855469 558.867188 860.546875 548.253906 860.546875 Z M 548.253906 860.554688 "/><path style=" stroke:none;fill-rule:nonzero;fill:#d15353;fill-opacity:1;" d="M 538.71875 858.761719 C 523.304688 858.761719 507.664062 853.199219 496.140625 844.914062 C 475.308594 829.945312 463.011719 807.285156 453.113281 787.21875 C 451.710938 784.382812 450.320312 781.523438 448.929688 778.640625 C 441.398438 763.105469 433.609375 747.050781 422.800781 732.554688 C 420.414062 729.347656 417.921875 726.285156 415.402344 723.441406 C 393.421875 698.738281 359.289062 681.257812 321.761719 675.492188 C 290.464844 670.675781 262.363281 674.113281 241.378906 677.640625 C 238.515625 678.125 235.5625 678.648438 232.355469 679.242188 C 226.410156 680.351562 220.484375 681.550781 214.757812 682.710938 C 194.226562 686.863281 174.832031 690.785156 153.523438 691.207031 C 129.050781 691.640625 95.050781 686.230469 72.03125 657.824219 C 70.105469 655.457031 68.261719 652.914062 66.554688 650.265625 C 49.804688 624.1875 46.6875 590.480469 45.851562 564.03125 C 45.519531 552.753906 45.460938 541.535156 45.398438 530.679688 C 45.269531 504.976562 45.136719 480.695312 41.609375 456.261719 C 37.789062 429.671875 30.058594 406.558594 18.617188 387.546875 C 12.289062 377.015625 4.71875 367.601562 -3.878906 359.578125 C -30.882812 334.429688 -72.5625 320.054688 -118.363281 320.054688 C -118.769531 320.054688 -119.160156 320.054688 -119.566406 320.054688 C -163.492188 320.296875 -206.402344 332.503906 -243.183594 343.933594 L -243.484375 342.964844 C -206.644531 331.515625 -163.644531 319.289062 -119.574219 319.046875 C -119.171875 319.046875 -118.769531 319.046875 -118.375 319.046875 C -72.3125 319.046875 -30.390625 333.519531 -3.203125 358.839844 C 5.464844 366.925781 13.09375 376.410156 19.472656 387.023438 C 30.984375 406.144531 38.765625 429.386719 42.597656 456.109375 C 46.136719 480.613281 46.265625 504.925781 46.398438 530.667969 C 46.457031 541.515625 46.519531 552.722656 46.851562 563.992188 C 47.6875 590.308594 50.773438 623.84375 67.394531 649.710938 C 69.078125 652.332031 70.902344 654.839844 72.804688 657.179688 C 95.574219 685.269531 129.242188 690.644531 153.503906 690.191406 C 174.710938 689.765625 194.0625 685.855469 214.554688 681.714844 C 220.292969 680.554688 226.21875 679.355469 232.164062 678.246094 C 235.378906 677.652344 238.335938 677.125 241.207031 676.644531 C 262.261719 673.105469 290.476562 669.65625 321.914062 674.496094 C 359.671875 680.300781 394.023438 697.890625 416.160156 722.765625 C 418.699219 725.628906 421.210938 728.714844 423.617188 731.941406 C 434.484375 746.515625 442.285156 762.621094 449.847656 778.183594 C 451.238281 781.058594 452.628906 783.921875 454.027344 786.753906 C 463.867188 806.710938 476.101562 829.25 496.746094 844.078125 C 515.886719 857.855469 546.570312 864.015625 568.171875 849.125 L 568.746094 849.953125 C 559.792969 856.121094 549.3125 858.742188 538.726562 858.742188 Z M 538.71875 858.761719 "/><path style=" stroke:none;fill-rule:nonzero;fill:#d15353;fill-opacity:1;" d="M 529.34375 856.808594 C 514.175781 856.808594 498.78125 851.667969 487.421875 843.976562 C 466.4375 829.804688 453.605469 808.304688 443.234375 789.253906 C 441.519531 786.117188 439.828125 782.941406 438.125 779.746094 C 430.402344 765.285156 422.417969 750.335938 411.835938 736.667969 C 409.425781 733.550781 406.9375 730.578125 404.417969 727.808594 C 382.695312 703.949219 349.402344 686.078125 313.066406 678.769531 C 283.207031 672.753906 256.265625 674.101562 236.125 675.949219 C 233.242188 676.210938 230.402344 676.5 227.589844 676.792969 C 222.257812 677.367188 216.957031 678.015625 211.824219 678.636719 C 192.320312 681.007812 173.90625 683.246094 153.707031 682.097656 C 120.695312 680.160156 94.183594 667.429688 77.039062 645.304688 C 75.203125 642.945312 73.429688 640.40625 71.789062 637.777344 C 55.921875 612.285156 51.878906 579.132812 50.125 553.105469 C 49.511719 543.640625 49.058594 534.21875 48.625 525.105469 C 47.355469 498.585938 46.144531 473.539062 41.265625 448.601562 C 36.289062 423.046875 27.738281 400.933594 15.855469 382.871094 C 9.273438 372.851562 1.542969 363.910156 -7.117188 356.289062 C -34.3125 332.414062 -75.6875 318.765625 -120.753906 318.765625 C -121.085938 318.765625 -121.410156 318.765625 -121.742188 318.765625 C -164.984375 318.957031 -207.429688 330.464844 -243.828125 341.230469 L -244.109375 340.265625 C -207.652344 329.480469 -165.125 317.949219 -121.742188 317.757812 C -76.039062 317.566406 -34.019531 331.324219 -6.441406 355.535156 C 2.277344 363.214844 10.070312 372.226562 16.703125 382.316406 C 28.65625 400.488281 37.265625 422.726562 42.265625 448.410156 C 47.152344 473.417969 48.363281 498.496094 49.644531 525.054688 C 50.078125 534.167969 50.53125 543.582031 51.144531 553.035156 C 52.886719 578.941406 56.898438 611.929688 72.65625 637.230469 C 74.289062 639.832031 76.03125 642.339844 77.847656 644.679688 C 99.273438 672.339844 130.964844 679.746094 153.777344 681.089844 C 173.875 682.226562 192.261719 680 211.714844 677.640625 C 216.84375 677.015625 222.144531 676.371094 227.488281 675.796875 C 230.300781 675.492188 233.152344 675.210938 236.035156 674.9375 C 256.246094 673.085938 283.28125 671.734375 313.265625 677.773438 C 349.804688 685.121094 383.300781 703.113281 405.164062 727.121094 C 407.703125 729.914062 410.210938 732.917969 412.632812 736.042969 C 423.265625 749.78125 431.277344 764.769531 439.011719 779.265625 C 440.714844 782.460938 442.40625 785.632812 444.121094 788.769531 C 454.441406 807.707031 467.191406 829.097656 487.988281 843.140625 C 506.976562 855.980469 537.367188 861.644531 558.707031 847.605469 L 559.261719 848.449219 C 550.351562 854.308594 539.898438 856.808594 529.34375 856.808594 Z M 529.34375 856.808594 "/><path style=" stroke:none;fill-rule:nonzero;fill:#d15353;fill-opacity:1;" d="M 519.871094 855.023438 C 504.738281 855.023438 489.671875 850.003906 478.695312 843.046875 C 457.515625 829.664062 444.179688 809.320312 433.335938 791.308594 C 431.25 787.832031 429.132812 784.234375 427.085938 780.753906 C 419.242188 767.390625 411.140625 753.582031 400.839844 740.789062 C 398.410156 737.777344 395.910156 734.875 393.390625 732.171875 C 371.960938 709.191406 339.503906 690.914062 304.335938 682.035156 C 276.273438 674.949219 251.4375 674.121094 230.84375 674.253906 C 228.125 674.273438 225.433594 674.304688 222.792969 674.355469 C 218.265625 674.445312 213.832031 674.578125 209.457031 674.707031 C 190.777344 675.261719 173.140625 675.785156 153.867188 672.992188 C 122.488281 668.367188 98.316406 654.839844 82.027344 632.796875 C 80.273438 630.4375 78.582031 627.90625 77 625.285156 C 62.140625 600.613281 57.234375 569.433594 54.390625 542.191406 C 53.644531 534.871094 52.96875 527.574219 52.324219 520.519531 C 49.773438 492.820312 47.363281 466.652344 40.902344 440.960938 C 34.777344 416.457031 25.410156 395.339844 13.074219 378.203125 C 6.238281 368.699219 -1.652344 360.222656 -10.363281 353.003906 C -37.746094 330.40625 -78.832031 317.472656 -123.164062 317.472656 C -123.425781 317.472656 -123.675781 317.472656 -123.929688 317.472656 C -166.484375 317.613281 -208.46875 328.421875 -244.472656 338.53125 L -244.742188 337.5625 C -208.667969 327.433594 -166.617188 316.617188 -123.929688 316.464844 C -123.675781 316.464844 -123.414062 316.464844 -123.152344 316.464844 C -78.589844 316.464844 -37.273438 329.480469 -9.707031 352.230469 C -0.925781 359.496094 7.015625 368.035156 13.910156 377.609375 C 26.328125 394.855469 35.742188 416.082031 41.902344 440.707031 C 48.371094 466.480469 50.792969 492.679688 53.34375 520.417969 C 53.988281 527.472656 54.664062 534.773438 55.410156 542.078125 C 58.242188 569.214844 63.128906 600.25 77.875 624.761719 C 79.4375 627.351562 81.121094 629.851562 82.855469 632.191406 C 98.984375 654.015625 122.921875 667.398438 154.027344 671.996094 C 173.21875 674.777344 190.820312 674.265625 209.445312 673.699219 C 213.832031 673.570312 218.265625 673.4375 222.800781 673.347656 C 225.453125 673.296875 228.132812 673.257812 230.867188 673.246094 C 251.539062 673.113281 276.445312 673.941406 304.609375 681.058594 C 339.957031 689.976562 372.59375 708.363281 394.15625 731.484375 C 396.6875 734.207031 399.207031 737.121094 401.644531 740.15625 C 411.996094 752.996094 420.121094 766.847656 427.984375 780.242188 C 430.03125 783.71875 432.136719 787.316406 434.222656 790.785156 C 444.996094 808.707031 458.261719 828.925781 479.25 842.191406 C 497.503906 853.753906 527.199219 859.902344 549.261719 846.082031 L 549.796875 846.9375 C 540.664062 852.652344 530.261719 855.023438 519.878906 855.023438 Z M 519.871094 855.023438 "/><path style=" stroke:none;fill-rule:nonzero;fill:#d15353;fill-opacity:1;" d="M 510.425781 853.078125 C 495.566406 853.078125 480.78125 848.5 469.976562 842.121094 C 450.722656 830.792969 437.457031 814.433594 423.457031 793.355469 C 420.898438 789.496094 418.308594 785.484375 415.796875 781.59375 C 407.925781 769.375 399.789062 756.746094 389.863281 744.914062 C 387.402344 741.980469 384.894531 739.167969 382.394531 736.546875 C 353.515625 706.316406 315.636719 691.46875 295.628906 685.3125 C 269.621094 677.296875 246.589844 674.457031 225.582031 672.5625 C 223.023438 672.328125 220.492188 672.117188 218.011719 671.914062 C 214.667969 671.652344 211.382812 671.402344 208.144531 671.160156 C 189.941406 669.808594 172.746094 668.519531 154.039062 663.882812 C 124.34375 656.433594 102.429688 642.171875 87.039062 620.277344 C 85.375 617.917969 83.753906 615.398438 82.230469 612.796875 C 67.695312 587.800781 62.445312 557.613281 58.664062 531.265625 C 58 526.554688 57.363281 521.890625 56.730469 517.261719 C 52.707031 487.871094 48.917969 460.113281 40.5625 433.300781 C 33.292969 409.855469 23.113281 389.734375 10.3125 373.515625 C 3.226562 364.527344 -4.816406 356.511719 -13.597656 349.707031 C -41.578125 328.078125 -81.320312 316.171875 -125.550781 316.171875 C -125.742188 316.171875 -125.925781 316.171875 -126.117188 316.171875 C -167.988281 316.273438 -209.503906 326.363281 -245.125 335.820312 L -245.390625 334.839844 C -209.695312 325.367188 -168.109375 315.257812 -126.117188 315.15625 C -125.925781 315.15625 -125.734375 315.15625 -125.550781 315.15625 C -81.101562 315.15625 -41.144531 327.128906 -12.980469 348.902344 C -4.140625 355.757812 3.960938 363.832031 11.097656 372.882812 C 23.980469 389.199219 34.210938 409.429688 41.519531 432.996094 C 49.894531 459.890625 53.695312 487.6875 57.714844 517.121094 C 58.351562 521.75 58.988281 526.414062 59.652344 531.121094 C 63.421875 557.371094 68.644531 587.449219 83.085938 612.285156 C 84.597656 614.863281 86.191406 617.355469 87.84375 619.691406 C 103.09375 641.382812 124.816406 655.515625 154.269531 662.894531 C 172.898438 667.511719 190.050781 668.789062 208.207031 670.140625 C 211.453125 670.382812 214.738281 670.625 218.085938 670.898438 C 220.5625 671.097656 223.09375 671.3125 225.652344 671.542969 C 246.71875 673.4375 269.8125 676.289062 295.910156 684.332031 C 316.007812 690.523438 354.070312 705.429688 383.097656 735.832031 C 385.617188 738.472656 388.136719 741.292969 390.617188 744.246094 C 400.585938 756.132812 408.742188 768.792969 416.625 781.027344 C 419.125 784.910156 421.714844 788.929688 424.273438 792.78125 C 438.195312 813.738281 451.378906 829.996094 470.457031 841.234375 C 488.5625 851.917969 517.972656 857.511719 539.777344 844.539062 L 540.289062 845.40625 C 531.179688 850.828125 520.765625 853.058594 510.394531 853.058594 Z M 510.425781 853.078125 "/><path style=" stroke:none;fill-rule:nonzero;fill:#d15353;fill-opacity:1;" d="M 500.757812 851.273438 C 486.40625 851.273438 472.140625 847.152344 461.246094 841.183594 C 440.613281 829.925781 426.136719 812.527344 413.570312 795.402344 C 410.414062 791.109375 407.371094 786.792969 404.144531 782.226562 C 396.375 771.21875 388.328125 759.839844 378.875 749.023438 C 376.394531 746.183594 373.875 743.449219 371.386719 740.902344 C 343.0625 711.972656 306.300781 695.703125 286.917969 688.578125 C 262.476562 679.585938 240.613281 674.890625 220.3125 670.855469 C 217.902344 670.382812 215.542969 669.917969 213.226562 669.457031 L 208.78125 668.597656 C 189.558594 664.890625 172.957031 661.683594 154.1875 654.761719 C 136.589844 648.207031 111.007812 636.203125 92.027344 607.757812 C 90.445312 605.410156 88.914062 602.898438 87.453125 600.308594 C 74.035156 576.378906 67.988281 547.683594 62.9375 520.347656 L 62.121094 515.871094 C 56.355469 484.070312 50.921875 454.035156 40.21875 425.660156 C 31.8125 403.292969 20.824219 384.171875 7.539062 368.851562 C 0.203125 360.375 -7.992188 352.824219 -16.832031 346.421875 C -45.015625 326.082031 -84.488281 314.882812 -128 314.882812 L -128.304688 314.882812 C -169.480469 314.933594 -210.535156 324.328125 -245.78125 333.128906 L -246.023438 332.148438 C -210.714844 323.339844 -169.589844 313.925781 -128.304688 313.875 C -84.4375 313.835938 -44.664062 325.09375 -16.246094 345.605469 C -7.347656 352.058594 0.917969 359.65625 8.296875 368.195312 C 21.652344 383.617188 32.707031 402.828125 41.15625 425.316406 C 51.890625 453.78125 57.332031 483.859375 63.109375 515.710938 L 63.925781 520.1875 C 68.957031 547.441406 74.984375 576.039062 88.328125 599.835938 C 89.78125 602.40625 91.300781 604.886719 92.863281 607.222656 C 111.683594 635.425781 137.074219 647.332031 154.542969 653.84375 C 173.230469 660.738281 189.789062 663.933594 208.972656 667.640625 L 213.417969 668.5 C 215.734375 668.953125 218.09375 669.414062 220.503906 669.898438 C 240.84375 673.941406 262.757812 678.648438 287.261719 687.660156 C 306.726562 694.816406 343.636719 711.15625 372.101562 740.226562 C 374.601562 742.785156 377.140625 745.527344 379.628906 748.390625 C 389.117188 759.246094 397.167969 770.644531 404.960938 781.671875 C 408.175781 786.230469 411.21875 790.53125 414.375 794.828125 C 426.875 811.863281 441.257812 829.160156 461.71875 840.328125 C 480.265625 850.476562 508.671875 855.253906 530.332031 843.046875 L 530.824219 843.925781 C 521.582031 849.125 511.140625 851.292969 500.75 851.292969 Z M 500.757812 851.273438 "/><path style=" stroke:none;fill-rule:nonzero;fill:#d15353;fill-opacity:1;" d="M 490.757812 849.457031 C 478.027344 849.457031 464.664062 846.375 452.527344 840.257812 C 431.589844 829.734375 416.683594 813.464844 403.691406 797.449219 C 399.789062 792.640625 396.03125 787.769531 392.050781 782.621094 C 384.519531 772.882812 376.738281 762.824219 367.910156 753.148438 C 365.410156 750.394531 362.878906 747.746094 360.390625 745.273438 C 334.132812 719.148438 301.199219 701.800781 278.210938 691.851562 C 256.71875 682.550781 237.667969 676.429688 220.867188 671.039062 C 218.890625 670.402344 216.945312 669.777344 215.03125 669.164062 C 212.78125 668.4375 210.585938 667.722656 208.4375 667.015625 C 189.105469 660.726562 172.855469 655.152344 154.359375 645.648438 C 136.722656 636.515625 114.261719 622.523438 97.039062 595.257812 C 95.546875 592.910156 94.085938 590.410156 92.683594 587.832031 C 79.527344 563.46875 73.019531 534.890625 67.273438 509.671875 L 67.222656 509.429688 C 59.710938 475.988281 52.464844 446.03125 39.886719 418.007812 C 30.371094 396.730469 18.558594 378.617188 4.789062 364.171875 C -2.792969 356.210938 -11.148438 349.132812 -20.058594 343.125 C -48.441406 324.078125 -87.652344 313.582031 -130.46875 313.582031 C -170.949219 313.582031 -211.542969 322.273438 -246.417969 330.417969 L -246.648438 329.4375 C -211.722656 321.285156 -171.050781 312.585938 -130.46875 312.585938 C -87.449219 312.585938 -48.039062 323.140625 -19.492188 342.300781 C -10.523438 348.347656 -2.105469 355.472656 5.515625 363.488281 C 19.363281 378.011719 31.238281 396.226562 40.804688 417.617188 C 53.414062 445.71875 60.671875 475.734375 68.199219 509.230469 L 68.25 509.472656 C 73.984375 534.621094 80.476562 563.125 93.558594 587.367188 C 94.949219 589.925781 96.402344 592.40625 97.882812 594.734375 C 114.980469 621.800781 137.285156 635.6875 154.8125 644.769531 C 173.238281 654.234375 189.457031 659.789062 208.742188 666.070312 C 210.898438 666.773438 213.085938 667.492188 215.332031 668.214844 C 217.238281 668.832031 219.183594 669.457031 221.160156 670.089844 C 237.980469 675.492188 257.050781 681.613281 278.59375 690.945312 C 301.664062 700.933594 334.714844 718.34375 361.085938 744.578125 C 363.585938 747.070312 366.125 749.730469 368.632812 752.492188 C 377.496094 762.199219 385.285156 772.277344 392.824219 782.027344 C 396.808594 787.167969 400.554688 792.023438 404.457031 796.832031 C 417.378906 812.757812 432.195312 828.9375 452.960938 839.378906 C 475.398438 850.6875 502.046875 851.523438 520.878906 841.515625 L 521.351562 842.402344 C 512.460938 847.128906 501.847656 849.480469 490.75 849.480469 Z M 490.757812 849.457031 "/><path style=" stroke:none;fill-rule:nonzero;fill:#d15353;fill-opacity:1;" d="M 481.132812 847.542969 C 468.695312 847.542969 455.660156 844.792969 443.808594 839.328125 C 422.46875 829.519531 406.5625 813.695312 393.8125 799.503906 C 388.945312 794.089844 384.269531 788.558594 379.320312 782.691406 C 372.253906 774.335938 364.953125 765.6875 356.929688 757.28125 C 354.351562 754.570312 351.882812 752.070312 349.390625 749.648438 C 329.019531 729.902344 302.136719 711.558594 269.5 695.117188 C 254.210938 687.40625 240.109375 681.109375 227.671875 675.554688 C 221.339844 672.722656 215.351562 670.050781 209.757812 667.441406 C 207.671875 666.460938 205.636719 665.503906 203.648438 664.539062 C 183.914062 655.082031 169.679688 646.957031 154.523438 636.503906 C 136.410156 623.925781 117.519531 608.695312 102.046875 582.742188 C 100.644531 580.402344 99.253906 577.914062 97.914062 575.34375 C 86.292969 552.933594 79.289062 527.140625 73.097656 504.382812 C 72.5625 502.40625 72.03125 500.449219 71.503906 498.515625 C 62.332031 464.554688 53.382812 436.566406 39.5625 410.359375 C 28.960938 390.1875 16.328125 373.074219 2.035156 359.484375 C -5.785156 352.046875 -14.300781 345.433594 -23.285156 339.832031 C -51.789062 322.109375 -90.625 312.332031 -132.648438 312.28125 L -132.96875 312.28125 C -172.632812 312.28125 -212.648438 320.246094 -247.0625 327.703125 L -247.273438 326.71875 C -212.8125 319.238281 -172.726562 311.273438 -132.96875 311.273438 L -132.648438 311.273438 C -90.445312 311.324219 -51.414062 321.164062 -22.75 338.972656 C -13.707031 344.609375 -5.140625 351.269531 2.730469 358.761719 C 17.105469 372.417969 29.796875 389.625 40.449219 409.894531 C 54.320312 436.183594 63.28125 464.234375 72.472656 498.253906 C 72.996094 500.1875 73.53125 502.144531 74.066406 504.121094 C 80.234375 526.828125 87.230469 552.5625 98.800781 574.878906 C 100.132812 577.429688 101.511719 579.898438 102.902344 582.226562 C 118.273438 608.019531 137.074219 623.171875 155.085938 635.6875 C 170.195312 646.113281 184.386719 654.214844 204.074219 663.640625 C 206.058594 664.597656 208.09375 665.566406 210.171875 666.53125 C 215.753906 669.144531 221.734375 671.816406 228.0625 674.636719 C 240.511719 680.199219 254.621094 686.5 269.933594 694.222656 C 302.664062 710.703125 329.625 729.109375 350.078125 748.925781 C 352.578125 751.351562 355.058594 753.851562 357.648438 756.585938 C 365.679688 765.019531 373 773.679688 380.074219 782.046875 C 385.023438 787.902344 389.699219 793.4375 394.550781 798.828125 C 407.230469 812.941406 423.042969 828.683594 444.210938 838.410156 C 466.425781 848.652344 492.816406 849.265625 511.421875 839.972656 L 511.875 840.871094 C 502.957031 845.324219 492.269531 847.542969 481.113281 847.542969 Z M 481.132812 847.542969 "/><path style=" stroke:none;fill-rule:nonzero;fill:#d15353;fill-opacity:1;" d="M 471.386719 845.738281 C 459.359375 845.738281 446.792969 843.28125 435.089844 838.390625 C 413.347656 829.328125 397.027344 814.683594 383.933594 801.539062 C 377.816406 795.410156 371.941406 789.03125 365.710938 782.269531 C 359.402344 775.421875 352.890625 768.347656 345.945312 761.382812 C 343.335938 758.75 340.863281 756.34375 338.375 754.003906 C 318.808594 735.558594 293.417969 717.355469 260.773438 698.375 C 252.75 693.707031 245.230469 689.453125 237.949219 685.332031 C 225.230469 678.132812 214.242188 671.914062 204.464844 665.707031 C 202.53125 664.488281 200.644531 663.257812 198.84375 662.058594 C 183.300781 651.796875 170.496094 641.746094 154.671875 627.363281 C 141.144531 614.996094 122.628906 598.050781 107.035156 570.222656 C 105.714844 567.882812 104.40625 565.402344 103.125 562.855469 C 93.117188 542.714844 86.273438 520.953125 79.660156 499.894531 C 78.351562 495.722656 77.058594 491.609375 75.769531 487.597656 C 64.007812 450.667969 53.078125 425.285156 39.210938 402.707031 C 27.539062 383.65625 14.101562 367.539062 -0.734375 354.808594 C -8.789062 347.882812 -17.46875 341.734375 -26.519531 336.535156 C -63.210938 315.539062 -105.675781 311.054688 -134.835938 310.984375 C -135.085938 310.984375 -135.339844 310.984375 -135.589844 310.984375 C -174.367188 310.984375 -212.238281 317.90625 -247.71875 324.992188 L -247.917969 324.003906 C -212.15625 316.859375 -173.984375 309.875 -134.835938 309.976562 C -105.554688 310.046875 -62.898438 314.550781 -26.023438 335.65625 C -16.914062 340.890625 -8.183594 347.078125 -0.0820312 354.042969 C 14.835938 366.84375 28.34375 383.03125 40.066406 402.171875 C 53.976562 424.824219 64.945312 450.273438 76.726562 487.285156 C 78.015625 491.308594 79.308594 495.421875 80.628906 499.59375 C 87.230469 520.609375 94.054688 542.332031 104.03125 562.398438 C 105.304688 564.929688 106.601562 567.398438 107.914062 569.726562 C 123.425781 597.425781 141.882812 614.300781 155.347656 626.617188 C 171.132812 640.960938 183.894531 650.988281 199.394531 661.222656 C 201.199219 662.421875 203.085938 663.640625 205.011719 664.859375 C 214.769531 671.046875 225.746094 677.257812 238.457031 684.453125 C 245.734375 688.578125 253.261719 692.832031 261.285156 697.496094 C 294.003906 716.519531 319.445312 734.761719 339.070312 753.269531 C 341.558594 755.617188 344.039062 758.035156 346.660156 760.675781 C 353.605469 767.652344 360.136719 774.738281 366.445312 781.59375 C 372.664062 788.335938 378.53125 794.714844 384.640625 800.835938 C 397.664062 813.898438 413.882812 828.460938 435.472656 837.464844 C 457.808594 846.808594 483.300781 847.179688 501.988281 838.441406 L 502.410156 839.359375 C 493.277344 843.621094 482.566406 845.75 471.375 845.75 Z M 471.386719 845.738281 "/><path style=" stroke:none;fill-rule:nonzero;fill:#d15353;fill-opacity:1;" d="M 461.558594 843.945312 C 449.96875 843.945312 437.882812 841.777344 426.371094 837.464844 C 404.023438 829.109375 386.675781 814.976562 374.058594 803.597656 C 366.253906 796.570312 358.777344 789.089844 350.855469 781.167969 C 345.734375 776.046875 340.441406 770.765625 334.976562 765.515625 C 332.316406 762.953125 329.828125 760.617188 327.386719 758.378906 C 303.339844 736.335938 275.902344 717.535156 252.074219 701.640625 C 232.285156 688.4375 213.597656 675.96875 199.203125 663.984375 C 197.449219 662.519531 195.71875 661.039062 194.0625 659.578125 C 178.5625 645.980469 166.667969 632.253906 154.855469 618.210938 L 152.234375 615.085938 C 140.269531 600.832031 125.371094 583.105469 112.054688 557.703125 C 110.828125 555.375 109.597656 552.90625 108.378906 550.363281 C 100.121094 533.007812 93.601562 514.582031 87.300781 496.761719 C 84.832031 489.765625 82.492188 483.164062 80.074219 476.683594 C 67.644531 443.027344 54.5625 417.089844 38.898438 395.058594 C 26.199219 377.136719 11.933594 362.015625 -3.476562 350.132812 C -11.761719 343.730469 -20.59375 338.046875 -29.734375 333.25 C -58.875 317.988281 -95.96875 309.84375 -137.003906 309.691406 C -175.285156 309.53125 -213.011719 315.839844 -248.351562 322.292969 L -248.535156 321.304688 C -213.152344 314.84375 -175.375 308.523438 -137.003906 308.683594 C -95.808594 308.835938 -58.550781 317.019531 -29.269531 332.363281 C -20.078125 337.191406 -11.199219 342.90625 -2.863281 349.347656 C 12.628906 361.300781 26.953125 376.480469 39.714844 394.484375 C 55.429688 416.585938 68.542969 442.59375 81.011719 476.339844 C 83.429688 482.832031 85.769531 489.441406 88.246094 496.4375 C 94.546875 514.230469 101.050781 532.632812 109.285156 549.941406 C 110.492188 552.480469 111.734375 554.929688 112.953125 557.25 C 126.226562 582.558594 141.074219 600.238281 153.007812 614.453125 L 155.628906 617.574219 C 167.421875 631.578125 179.289062 645.273438 194.738281 658.832031 C 196.382812 660.285156 198.105469 661.765625 199.859375 663.214844 C 214.214844 675.160156 232.871094 687.621094 252.636719 700.804688 C 276.496094 716.71875 303.972656 735.539062 328.074219 757.632812 C 330.523438 759.878906 333.011719 762.21875 335.683594 764.78125 C 341.15625 770.03125 346.457031 775.324219 351.578125 780.441406 C 359.492188 788.347656 366.960938 795.816406 374.742188 802.832031 C 387.292969 814.148438 404.546875 828.199219 426.734375 836.507812 C 449.171875 844.921875 473.773438 845.074219 492.554688 836.898438 L 492.957031 837.828125 C 483.59375 841.898438 472.808594 843.933594 461.570312 843.933594 Z M 461.558594 843.945312 "/><path style=" stroke:none;fill-rule:nonzero;fill:#d15353;fill-opacity:1;" d="M 451.570312 842.058594 C 440.359375 842.058594 428.738281 840.214844 417.640625 836.527344 C 399.789062 830.609375 383.300781 821.085938 364.167969 805.640625 C 354.027344 797.457031 344.34375 788.476562 334.082031 778.960938 C 330.765625 775.886719 327.410156 772.773438 323.980469 769.636719 C 321.199219 767.085938 318.710938 764.828125 316.359375 762.742188 C 296.535156 745.09375 274.640625 728.5625 255.320312 713.976562 C 251.214844 710.882812 247.214844 707.859375 243.332031 704.90625 C 220.070312 687.175781 205.28125 674.425781 193.914062 662.257812 C 192.332031 660.566406 190.769531 658.832031 189.257812 657.097656 C 176.425781 642.441406 167.191406 628.070312 156.515625 611.425781 L 155.003906 609.070312 C 153.011719 605.953125 150.921875 602.738281 148.746094 599.414062 C 138.96875 584.425781 127.890625 567.441406 117.027344 545.195312 C 115.886719 542.886719 114.726562 540.417969 113.566406 537.875 C 107.328125 524.136719 101.765625 509.792969 96.390625 495.933594 C 92.289062 485.371094 88.417969 475.390625 84.316406 465.777344 C 71.09375 434.539062 56.113281 408.90625 38.535156 387.425781 C 24.847656 370.644531 9.769531 356.53125 -6.257812 345.476562 C -14.765625 339.597656 -23.757812 334.386719 -32.992188 329.972656 C -62.210938 316.0625 -98.941406 308.613281 -139.210938 308.414062 C -176.785156 308.210938 -214.050781 313.84375 -249.027344 319.609375 L -249.1875 318.613281 C -214.171875 312.835938 -176.816406 307.214844 -139.199219 307.40625 C -98.789062 307.605469 -61.910156 315.09375 -32.558594 329.066406 C -23.273438 333.5 -14.242188 338.742188 -5.683594 344.648438 C 10.421875 355.765625 25.574219 369.9375 39.320312 386.792969 C 56.960938 408.351562 71.988281 434.066406 85.253906 465.394531 C 89.367188 475.03125 93.238281 485.019531 97.339844 495.582031 C 102.710938 509.441406 108.265625 523.765625 114.496094 537.472656 C 115.65625 540.003906 116.8125 542.453125 117.941406 544.761719 C 128.789062 566.945312 139.847656 583.910156 149.601562 598.867188 C 151.78125 602.203125 153.867188 605.410156 155.863281 608.535156 L 157.375 610.894531 C 168.039062 627.503906 177.242188 641.835938 190.023438 656.441406 C 191.523438 658.167969 193.078125 659.890625 194.660156 661.574219 C 205.988281 673.699219 220.734375 686.421875 243.949219 704.109375 C 247.820312 707.0625 251.832031 710.085938 255.921875 713.183594 C 275.257812 727.777344 297.167969 744.328125 317.027344 762.007812 C 319.375 764.09375 321.863281 766.351562 324.65625 768.902344 C 328.074219 772.027344 331.429688 775.140625 334.757812 778.226562 C 345.007812 787.730469 354.683594 796.703125 364.792969 804.867188 C 383.8125 820.226562 400.214844 829.703125 417.945312 835.578125 C 440.117188 842.957031 464.460938 842.886719 483.070312 835.398438 L 483.441406 836.335938 C 473.945312 840.15625 462.96875 842.070312 451.550781 842.070312 Z M 451.570312 842.058594 "/><path style=" stroke:none;fill-rule:nonzero;fill:#d15353;fill-opacity:1;" d="M 441.429688 840.265625 C 430.746094 840.265625 419.6875 838.714844 408.921875 835.589844 C 390.839844 830.367188 373.480469 821.496094 354.300781 807.679688 C 340.765625 797.929688 327.902344 786.722656 314.273438 774.847656 L 313.015625 773.75 C 310.496094 771.554688 307.945312 769.335938 305.375 767.109375 C 293.21875 756.613281 280.617188 746.292969 268.433594 736.316406 C 256.425781 726.488281 245.085938 717.203125 234.644531 708.152344 C 214.0625 690.3125 199.457031 675.171875 188.683594 660.503906 C 187.25 658.558594 185.847656 656.574219 184.507812 654.597656 C 174.125 639.308594 166.707031 623.855469 158.867188 607.507812 C 157.667969 604.996094 156.445312 602.464844 155.207031 599.90625 C 151.808594 592.859375 148.039062 585.460938 144.039062 577.628906 C 137.355469 564.558594 129.785156 549.738281 122.054688 532.664062 C 121.015625 530.375 119.957031 527.996094 118.820312 525.378906 C 115.121094 516.808594 111.5 508.011719 107.992188 499.492188 C 101.804688 484.433594 95.40625 468.859375 88.621094 454.839844 C 74.417969 425.316406 57.9375 400.753906 38.234375 379.757812 C 23.597656 364.121094 7.703125 351.007812 -8.992188 340.777344 C -17.710938 335.425781 -26.863281 330.679688 -36.195312 326.667969 C -65.476562 314.117188 -101.84375 307.355469 -141.367188 307.101562 C -178.136719 306.871094 -215.027344 311.808594 -249.652344 316.890625 L -249.804688 315.890625 C -215.140625 310.8125 -178.1875 305.894531 -141.367188 306.09375 C -101.714844 306.335938 -65.214844 313.128906 -35.800781 325.738281 C -26.429688 329.769531 -17.234375 334.550781 -8.464844 339.921875 C 8.304688 350.203125 24.273438 363.375 38.96875 379.070312 C 58.746094 400.148438 75.285156 424.792969 89.539062 454.40625 C 96.332031 468.449219 102.742188 484.039062 108.941406 499.109375 C 112.4375 507.628906 116.058594 516.425781 119.757812 524.984375 C 120.894531 527.59375 121.945312 529.972656 122.984375 532.25 C 130.714844 549.304688 138.273438 564.113281 144.945312 577.175781 C 148.949219 585.007812 152.726562 592.417969 156.125 599.472656 C 157.363281 602.035156 158.582031 604.574219 159.785156 607.074219 C 167.613281 623.390625 175.003906 638.804688 185.355469 654.035156 C 186.6875 656 188.085938 657.984375 189.5 659.910156 C 200.234375 674.515625 214.789062 689.605469 235.308594 707.394531 C 245.742188 716.425781 257.074219 725.710938 269.078125 735.539062 C 281.273438 745.515625 293.882812 755.839844 306.039062 766.351562 C 308.609375 768.578125 311.160156 770.796875 313.679688 772.996094 L 314.941406 774.09375 C 328.546875 785.945312 341.398438 797.144531 354.886719 806.863281 C 373.976562 820.609375 391.234375 829.429688 409.203125 834.621094 C 431.421875 841.0625 454.90625 840.78125 473.632812 833.855469 L 473.988281 834.804688 C 464.140625 838.441406 453 840.265625 441.429688 840.265625 Z M 441.429688 840.265625 "/><path style=" stroke:none;fill-rule:nonzero;fill:#d15353;fill-opacity:1;" d="M 430.964844 838.421875 C 420.816406 838.421875 410.375 837.171875 400.214844 834.660156 C 381.605469 830.074219 363.875 822.152344 344.433594 809.734375 C 329.304688 800.070312 315.121094 788.71875 302.046875 777.882812 C 299.507812 775.777344 296.949219 773.640625 294.378906 771.484375 L 290.6875 768.398438 C 268.199219 749.578125 244.9375 730.117188 225.9375 711.417969 C 207.167969 692.941406 193.257812 675.726562 183.429688 658.773438 C 182.160156 656.585938 180.921875 654.347656 179.75 652.109375 C 171.050781 635.597656 165.285156 619.066406 159.1875 601.550781 C 157.949219 597.992188 156.699219 594.394531 155.410156 590.753906 C 148.949219 572.480469 140.703125 552.753906 131.148438 529.914062 L 127.066406 520.144531 C 126.058594 517.746094 125.058594 515.328125 124.050781 512.886719 C 114.425781 489.414062 104.476562 465.132812 92.914062 443.921875 C 77.714844 415.890625 59.722656 392.394531 37.910156 372.097656 C 22.378906 357.613281 5.675781 345.496094 -11.742188 336.089844 C -20.664062 331.261719 -29.976562 326.980469 -39.421875 323.359375 C -69.15625 312 -104.183594 306.09375 -143.542969 305.792969 C -179.476562 305.53125 -216.007812 309.785156 -250.296875 314.167969 L -250.429688 313.171875 C -216.097656 308.773438 -179.578125 304.523438 -143.535156 304.785156 C -104.050781 305.085938 -68.902344 311.011719 -39.058594 322.414062 C -29.574219 326.050781 -20.21875 330.347656 -11.257812 335.195312 C 6.230469 344.648438 23.003906 356.816406 38.605469 371.351562 C 60.5 391.730469 78.550781 415.308594 93.800781 443.429688 C 105.382812 464.6875 115.351562 488.988281 124.988281 512.496094 C 125.996094 514.933594 126.996094 517.34375 128.003906 519.742188 L 132.085938 529.511719 C 141.648438 552.359375 149.90625 572.097656 156.367188 590.402344 C 157.65625 594.039062 158.917969 597.636719 160.15625 601.207031 C 166.246094 618.675781 171.988281 635.183594 180.660156 651.625 C 181.828125 653.851562 183.058594 656.082031 184.316406 658.257812 C 194.105469 675.132812 207.953125 692.277344 226.652344 710.691406 C 245.632812 729.359375 268.867188 748.804688 291.34375 767.613281 L 295.03125 770.695312 C 297.601562 772.84375 300.152344 774.980469 302.691406 777.085938 C 315.734375 787.890625 329.898438 799.230469 344.976562 808.867188 C 364.328125 821.234375 381.960938 829.109375 400.457031 833.675781 C 422.347656 839.085938 445.582031 838.59375 464.199219 832.324219 L 464.523438 833.28125 C 454.382812 836.699219 442.878906 838.421875 430.976562 838.421875 Z M 430.964844 838.421875 "/><path style=" stroke:none;fill-rule:nonzero;fill:#d15353;fill-opacity:1;" d="M 420.210938 836.65625 C 410.757812 836.65625 401.070312 835.679688 391.496094 833.722656 C 372.566406 829.863281 353.9375 822.6875 334.554688 811.769531 C 321.039062 804.171875 307.21875 794.707031 291.0625 781.996094 C 288.621094 780.082031 286.101562 778.066406 283.371094 775.847656 C 255.539062 753.289062 233.898438 733.28125 217.21875 714.671875 C 199.992188 695.453125 186.855469 676.058594 178.179688 657.039062 C 177.070312 654.617188 176 652.117188 174.984375 649.621094 C 167.625 631.527344 163.292969 613.472656 158.695312 594.363281 C 157.675781 590.140625 156.660156 585.894531 155.601562 581.613281 C 149.804688 558.15625 142.105469 533.957031 132.054688 507.636719 C 131.136719 505.238281 130.210938 502.828125 129.261719 500.410156 C 118.667969 473.085938 108.175781 451.039062 97.179688 433.015625 C 81.183594 406.6875 61.125 383.617188 37.566406 364.457031 C 21.1875 351.109375 3.660156 339.992188 -14.515625 331.425781 C -23.617188 327.128906 -33.082031 323.308594 -42.667969 320.085938 C -72.382812 310.105469 -107.054688 304.863281 -145.742188 304.523438 C -180.859375 304.199219 -215.5625 307.636719 -250.964844 311.488281 L -251.074219 310.488281 C -215.632812 306.628906 -180.910156 303.191406 -145.730469 303.515625 C -106.945312 303.867188 -72.160156 309.117188 -42.34375 319.136719 C -32.726562 322.371094 -23.222656 326.214844 -14.089844 330.527344 C 4.164062 339.136719 21.753906 350.292969 38.191406 363.6875 C 61.839844 382.929688 81.96875 406.085938 98.023438 432.511719 C 109.050781 450.585938 119.574219 472.691406 130.1875 500.066406 C 131.136719 502.488281 132.0625 504.90625 132.980469 507.304688 C 143.050781 533.664062 150.761719 557.90625 156.566406 581.398438 C 157.636719 585.683594 158.65625 589.9375 159.671875 594.160156 C 164.257812 613.230469 168.582031 631.253906 175.910156 649.277344 C 176.917969 651.765625 177.988281 654.246094 179.085938 656.65625 C 187.722656 675.585938 200.796875 694.886719 217.964844 714.039062 C 234.605469 732.605469 256.207031 752.582031 283.996094 775.101562 C 286.726562 777.320312 289.246094 779.324219 291.675781 781.238281 C 307.792969 793.917969 321.570312 803.34375 335.039062 810.925781 C 354.332031 821.78125 372.855469 828.925781 391.6875 832.765625 C 413.527344 837.230469 435.925781 836.546875 454.734375 830.832031 L 455.027344 831.800781 C 444.320312 835.054688 432.457031 836.6875 420.203125 836.699219 Z M 420.210938 836.65625 "/><path style=" stroke:none;fill-rule:nonzero;fill:#d15353;fill-opacity:1;" d="M 408.921875 834.925781 C 400.335938 834.925781 391.566406 834.21875 382.777344 832.785156 C 363.210938 829.632812 344.210938 823.421875 324.6875 813.808594 C 310 806.578125 295.414062 797.527344 280.09375 786.117188 C 277.554688 784.222656 274.953125 782.238281 272.375 780.210938 C 247.246094 760.515625 225.160156 738.984375 208.519531 717.929688 C 192.460938 697.609375 180.496094 676.53125 172.949219 655.304688 C 172.011719 652.652344 171.09375 649.902344 170.246094 647.140625 C 164.085938 627.160156 161.09375 607.285156 157.917969 586.238281 C 157.234375 581.671875 156.539062 577.074219 155.8125 572.46875 C 151.246094 543.449219 145.289062 518.875 137.0625 495.117188 C 136.238281 492.71875 135.378906 490.320312 134.503906 487.921875 C 125.492188 463.226562 114.375 441.082031 101.484375 422.101562 C 84.4375 396.941406 62.828125 374.96875 37.253906 356.792969 C 20.078125 344.566406 1.734375 334.457031 -17.257812 326.738281 C -26.519531 322.96875 -36.144531 319.621094 -45.871094 316.777344 C -75.484375 308.171875 -109.816406 303.613281 -147.898438 303.210938 C -182.078125 302.847656 -216.449219 305.628906 -251.589844 308.765625 L -251.679688 307.757812 C -216.511719 304.621094 -182.109375 301.839844 -147.886719 302.191406 C -109.714844 302.597656 -75.292969 307.171875 -45.589844 315.800781 C -35.824219 318.644531 -26.167969 322.011719 -16.871094 325.789062 C 2.1875 333.539062 20.59375 343.703125 37.839844 355.96875 C 63.503906 374.210938 85.195312 396.265625 102.308594 421.527344 C 115.25 440.578125 126.398438 462.800781 135.441406 487.570312 C 136.328125 489.976562 137.175781 492.386719 138.011719 494.785156 C 146.257812 518.59375 152.234375 543.226562 156.808594 572.308594 C 157.535156 576.925781 158.230469 581.511719 158.917969 586.085938 C 162.082031 607.09375 165.074219 626.941406 171.203125 646.847656 C 172.050781 649.597656 172.957031 652.339844 173.894531 654.972656 C 181.402344 676.097656 193.320312 697.0625 209.304688 717.304688 C 225.894531 738.300781 247.917969 759.78125 272.988281 779.425781 C 275.558594 781.441406 278.148438 783.425781 280.6875 785.3125 C 295.960938 796.679688 310.496094 805.714844 325.128906 812.910156 C 344.574219 822.476562 363.472656 828.652344 382.9375 831.800781 C 404.648438 835.316406 426.210938 834.441406 445.289062 829.277344 L 445.550781 830.246094 C 434.0625 833.363281 421.683594 834.925781 408.921875 834.925781 Z M 408.921875 834.925781 "/><path style=" stroke:none;fill-rule:nonzero;fill:#d15353;fill-opacity:1;" d="M 396.523438 833.191406 C 389.074219 833.191406 381.554688 832.746094 374.058594 831.847656 C 354.109375 829.472656 334.171875 824.089844 314.808594 815.851562 C 299.183594 809.210938 283.8125 800.59375 269.109375 790.242188 C 266.539062 788.4375 263.9375 786.53125 261.367188 784.585938 C 237.296875 766.371094 216.007812 744.449219 199.808594 721.183594 C 184.851562 699.695312 174.054688 676.957031 167.714844 653.582031 C 166.929688 650.6875 166.183594 647.695312 165.5 644.671875 C 160.488281 622.535156 158.765625 599.535156 157.09375 577.289062 C 156.738281 572.640625 156.398438 567.992188 156.011719 563.335938 C 154.078125 539.398438 150.914062 511.09375 142.054688 482.609375 C 141.296875 480.179688 140.511719 477.769531 139.714844 475.441406 C 131.730469 452.117188 120.300781 430.507812 105.757812 411.195312 C 87.621094 387.09375 64.460938 366.21875 36.921875 349.15625 C 18.980469 338.035156 -0.171875 328.914062 -20.019531 322.070312 C -29.421875 318.824219 -39.210938 315.941406 -49.109375 313.503906 C -78.933594 306.175781 -111.964844 302.394531 -150.097656 301.929688 C -183.207031 301.539062 -215.945312 303.574219 -252.261719 306.074219 L -252.332031 305.066406 C -216.007812 302.554688 -183.226562 300.519531 -150.085938 300.914062 C -111.882812 301.367188 -78.773438 305.167969 -48.875 312.515625 C -38.9375 314.953125 -29.121094 317.847656 -19.695312 321.101562 C 0.222656 327.976562 19.445312 337.128906 37.445312 348.289062 C 65.09375 365.421875 88.339844 386.378906 106.550781 410.578125 C 121.167969 429.972656 132.648438 451.683594 140.664062 475.109375 C 141.46875 477.449219 142.253906 479.867188 143.011719 482.308594 C 151.890625 510.882812 155.078125 539.265625 157.011719 563.257812 C 157.394531 567.914062 157.738281 572.570312 158.089844 577.21875 C 159.753906 599.421875 161.476562 622.394531 166.476562 644.449219 C 167.160156 647.460938 167.898438 650.445312 168.683594 653.320312 C 174.992188 676.582031 185.75 699.222656 200.636719 720.609375 C 216.773438 743.792969 237.980469 765.636719 261.980469 783.78125 C 264.542969 785.714844 267.140625 787.609375 269.691406 789.414062 C 284.335938 799.726562 299.648438 808.3125 315.203125 814.925781 C 334.484375 823.121094 354.320312 828.484375 374.179688 830.851562 C 395.316406 833.382812 416.632812 832.304688 435.84375 827.746094 L 436.078125 828.726562 C 423.578125 831.6875 410.183594 833.191406 396.523438 833.191406 Z M 396.523438 833.191406 "/><path style=" stroke:none;fill-rule:nonzero;fill:#d15353;fill-opacity:1;" d="M 382.402344 831.636719 C 338.546875 831.636719 294.929688 818.785156 258.140625 794.351562 C 208.941406 761.695312 174.078125 709.746094 162.484375 651.847656 C 156.949219 624.230469 156.667969 595.402344 156.386719 567.511719 C 156.035156 532.613281 155.671875 496.53125 144.945312 462.933594 C 123.488281 395.734375 60.789062 341.3125 -22.769531 317.351562 C -97.730469 295.875 -176.617188 299.671875 -252.910156 303.363281 L -252.957031 302.355469 C -176.59375 298.664062 -97.621094 294.855469 -22.496094 316.394531 C 16.15625 327.484375 51.859375 345.960938 80.75 369.828125 C 112.308594 395.902344 134.824219 427.988281 145.894531 462.632812 C 156.667969 496.367188 157.03125 532.535156 157.382812 567.511719 C 157.667969 595.351562 157.949219 624.136719 163.460938 651.65625 C 175.003906 709.300781 209.707031 761.007812 258.683594 793.515625 C 307.664062 826.035156 368.785156 837.949219 426.390625 826.214844 L 426.59375 827.203125 C 412.007812 830.175781 397.179688 831.636719 382.394531 831.636719 Z M 382.402344 831.636719 "/></g></svg>