<svg xmlns="http://www.w3.org/2000/svg" xmlns:xlink="http://www.w3.org/1999/xlink" width="1920" zoomAndPan="magnify" viewBox="0 0 1440 809.999993" height="1080" preserveAspectRatio="xMidYMid meet" version="1.2"><defs><clipPath id="0fd0fc9213"><path d="M 458.351562 143.351562 L 981.851562 143.351562 L 981.851562 666.851562 L 458.351562 666.851562 Z M 458.351562 143.351562 "/></clipPath></defs><g id="4cecbf8446"><rect x="0" width="1440" y="0" height="809.999993" style="fill:#ffffff;fill-opacity:1;stroke:none;"/><rect x="0" width="1440" y="0" height="809.999993" style="fill:#ffffff;fill-opacity:1;stroke:none;"/><g clip-rule="nonzero" clip-path="url(#0fd0fc9213)"><path style=" stroke:none;fill-rule:nonzero;fill:#d15353;fill-opacity:1;" d="M 981.578125 405.058594 C 981.578125 369.75 974.667969 335.5 961.019531 303.242188 C 956.566406 292.730469 951.410156 282.472656 945.589844 272.59375 C 945.574219 272.582031 945.574219 272.550781 945.574219 272.550781 C 945.574219 272.539062 945.5625 272.539062 945.5625 272.523438 C 945.5625 272.511719 945.546875 272.511719 945.546875 272.496094 C 945.546875 272.496094 945.519531 272.453125 945.476562 272.382812 C 942.761719 267.777344 939.894531 263.242188 936.898438 258.820312 C 927.546875 244.972656 916.792969 231.945312 904.964844 220.105469 C 893.125 208.261719 880.113281 197.523438 866.25 188.171875 C 852.261719 178.71875 837.3125 170.609375 821.8125 164.050781 C 792.550781 151.675781 761.636719 144.835938 729.789062 143.675781 C 726.253906 143.410156 722.964844 143.351562 719.980469 143.492188 C 719.558594 143.492188 719.148438 143.492188 718.726562 143.507812 C 718.695312 143.507812 718.683594 143.507812 718.652344 143.507812 C 718.652344 143.507812 718.640625 143.507812 718.640625 143.507812 C 718.640625 143.507812 718.640625 143.507812 718.625 143.507812 C 718.582031 143.507812 716.519531 143.464844 713.113281 143.59375 C 680.234375 144.441406 648.332031 151.308594 618.179688 164.050781 C 602.679688 170.609375 587.730469 178.71875 573.742188 188.171875 C 559.894531 197.523438 546.867188 208.277344 535.027344 220.105469 C 525.09375 230.035156 515.9375 240.804688 507.714844 252.207031 C 506.683594 253.40625 505.722656 254.578125 504.832031 255.695312 C 496.621094 266.109375 493.300781 274.136719 492.917969 275.125 C 492.636719 275.5625 491.351562 277.597656 489.597656 281.101562 C 485.699219 288.320312 482.152344 295.710938 478.972656 303.242188 C 465.339844 335.484375 458.414062 369.75 458.414062 405.058594 C 458.414062 440.371094 465.324219 474.621094 478.972656 506.878906 C 482.902344 516.160156 487.382812 525.230469 492.382812 534.035156 C 492.398438 534.0625 492.410156 534.089844 492.425781 534.132812 C 492.425781 534.132812 492.425781 534.132812 492.425781 534.148438 C 492.425781 534.148438 492.425781 534.148438 492.425781 534.160156 C 494.558594 538.160156 496.875 541.988281 499.363281 545.664062 C 500.578125 547.570312 501.808594 549.449219 503.078125 551.316406 C 512.433594 565.164062 523.183594 578.191406 535.011719 590.03125 C 546.851562 601.871094 559.867188 612.609375 573.726562 621.964844 C 587.714844 631.414062 602.664062 639.527344 618.164062 646.082031 C 650.40625 659.71875 684.671875 666.640625 719.980469 666.640625 C 755.292969 666.640625 789.542969 659.730469 821.800781 646.082031 C 837.300781 639.527344 852.25 631.414062 866.238281 621.964844 C 880.085938 612.609375 893.113281 601.855469 904.953125 590.03125 C 916.792969 578.191406 927.53125 565.175781 936.886719 551.316406 C 940.175781 546.441406 943.3125 541.4375 946.265625 536.351562 C 946.324219 536.253906 946.378906 536.152344 946.449219 536.054688 C 946.449219 536.054688 946.449219 536.042969 946.464844 536.042969 C 946.492188 535.984375 946.535156 535.914062 946.5625 535.859375 C 951.976562 526.503906 956.808594 516.8125 961.003906 506.90625 C 974.667969 474.621094 981.578125 440.371094 981.578125 405.058594 Z M 500.917969 544.574219 C 498.855469 541.324219 496.847656 538.035156 494.925781 534.699219 C 495.066406 534.699219 495.207031 534.714844 495.363281 534.714844 C 500.890625 535.050781 516.714844 536.578125 535.378906 543.164062 C 548.957031 547.953125 561.347656 554.453125 572.230469 562.464844 C 583.703125 570.925781 593.507812 581.128906 601.464844 592.84375 C 602.792969 595.214844 603.921875 596.96875 604.683594 598.085938 C 599.511719 598.113281 583.207031 597.660156 564.003906 591.441406 C 550.386719 587.035156 537.980469 580.621094 527.15625 572.398438 C 517.011719 564.695312 508.222656 555.371094 500.917969 544.574219 Z M 550.089844 222.703125 C 550.101562 222.703125 550.117188 222.6875 550.128906 222.675781 C 550.386719 222.535156 575.734375 209.210938 604.417969 208.898438 C 603.667969 210.171875 602.496094 212.246094 601.097656 215.003906 C 599.910156 216.867188 598.453125 219.03125 596.6875 221.402344 C 591.132812 228.851562 581.328125 239.941406 566.195312 250.46875 C 551.0625 260.996094 532.171875 267 518.988281 270.191406 C 508.941406 272.625 500.59375 273.824219 496.464844 274.332031 C 496.140625 274.347656 495.816406 274.375 495.519531 274.390625 C 498.402344 269.445312 501.441406 264.597656 504.648438 259.851562 C 506.132812 257.660156 507.644531 255.5 509.195312 253.351562 C 517.351562 243.871094 530.492188 231.875 550.089844 222.703125 Z M 713.101562 145.429688 C 714.34375 145.402344 715.589844 145.371094 716.832031 145.359375 C 716.464844 145.894531 716.109375 146.433594 715.757812 146.984375 C 710.359375 154.667969 694.957031 175.058594 675.207031 188.03125 C 659 198.65625 641.082031 203.261719 628.902344 205.269531 C 618.628906 206.949219 610.605469 207.105469 607.496094 207.089844 C 612.355469 197.792969 631.699219 176.910156 655.097656 161 C 667.574219 152.507812 684.164062 148.707031 695.878906 147.011719 C 702.855469 145.992188 708.976562 145.585938 713.101562 145.429688 Z M 729.464844 145.5 C 737.035156 146.066406 745.613281 147.617188 754.121094 149.992188 C 768.148438 153.90625 781.121094 159.742188 791.648438 166.847656 C 811.257812 180.089844 826.535156 201.75 830.207031 207.203125 C 819.78125 208.023438 808.601562 206.496094 796.113281 202.570312 C 785.457031 199.21875 773.757812 194.0625 760.320312 186.785156 C 753.710938 183.210938 743.410156 175.765625 731.894531 160.6875 C 726.707031 153.890625 723.089844 147.914062 721.605469 145.328125 C 724.222656 145.359375 726.847656 145.414062 729.464844 145.5 Z M 928.292969 363.53125 C 929.835938 373.210938 932.277344 381.902344 935.597656 389.53125 C 934.710938 388.457031 933.777344 387.339844 932.789062 386.195312 C 918.277344 369.410156 904.640625 360.027344 895.738281 355.113281 C 878.644531 345.644531 862.167969 341.703125 851.375 340.0625 C 848.757812 339.667969 846.355469 339.386719 844.195312 339.171875 C 845.296875 339.144531 846.457031 339.074219 847.699219 338.988281 C 856.304688 338.355469 870.234375 335.925781 887.644531 327.996094 C 908.894531 318.320312 923.503906 303.992188 932.023438 293.691406 C 933.238281 292.222656 934.371094 290.78125 935.414062 289.394531 C 932.152344 297.464844 928.464844 309.019531 927.179688 322.375 C 926.429688 330.34375 925.539062 346.296875 928.292969 363.53125 Z M 928.039062 486.363281 C 929.59375 500.351562 933.367188 511.976562 936.617188 519.933594 C 932.277344 514.210938 926.457031 507.457031 919.082031 500.800781 C 908.132812 490.925781 895.953125 483.167969 882.855469 477.742188 C 872.117188 473.292969 860.742188 470.394531 848.886719 469.109375 C 857.761719 468.207031 871.183594 465.621094 888.136719 458.738281 C 906.746094 451.191406 921.613281 437.0625 930.808594 426.535156 C 932.84375 424.207031 934.710938 421.945312 936.375 419.824219 C 928.816406 438.265625 925.46875 463.203125 928.039062 486.363281 Z M 943.78125 534.304688 C 942.085938 534.078125 939.402344 533.808594 935.867188 533.792969 C 935.375 533.792969 934.878906 533.792969 934.382812 533.808594 C 919.136719 532.167969 904.824219 528.511719 891.683594 522.886719 C 878.613281 517.292969 866.660156 509.746094 856.191406 500.476562 C 848.109375 493.328125 842.160156 486.21875 838.050781 480.570312 C 836.226562 476.964844 834.136719 473.433594 831.761719 470.199219 C 849.605469 469.871094 866.546875 472.980469 882.132812 479.4375 C 895.019531 484.777344 907.03125 492.410156 917.808594 502.128906 C 929.3125 512.488281 936.96875 523.054688 941.125 529.570312 C 942.183594 531.617188 943.101562 533.214844 943.78125 534.304688 Z M 720.164062 662.375 C 720.066406 662.234375 719.953125 662.0625 719.828125 661.878906 C 719.628906 661.582031 719.429688 661.285156 719.234375 660.988281 C 718.1875 659.421875 716.773438 657.132812 715.207031 654.207031 C 712.238281 648.667969 708.113281 639.609375 705.289062 627.953125 C 702.121094 614.855469 701.203125 601.207031 702.589844 587.375 C 704.257812 570.628906 709.300781 553.574219 717.59375 536.648438 C 718.851562 539.035156 721.140625 542.992188 724.628906 547.78125 C 727.457031 553.378906 730.792969 561.25 733.207031 570.882812 C 736.484375 584.011719 737.417969 597.660156 735.976562 611.464844 C 734.195312 628.308594 728.882812 645.417969 720.164062 662.375 Z M 494.984375 532.847656 C 495.957031 531.335938 497.609375 528.636719 499.53125 524.824219 C 506.796875 513.5625 515.753906 503.855469 526.25 495.886719 C 536.890625 487.816406 549.140625 481.5 562.648438 477.105469 C 581.808594 470.875 598.171875 470.339844 603.230469 470.339844 C 603.242188 470.339844 603.257812 470.339844 603.257812 470.339844 C 593.933594 485.597656 582.5 498.359375 569.261719 508.277344 C 558.367188 516.445312 546.214844 522.730469 533.175781 526.941406 C 521.558594 530.699219 511.34375 532.085938 504.832031 532.578125 C 500.5625 532.90625 497.273438 532.90625 495.335938 532.863281 C 495.207031 532.863281 495.097656 532.847656 494.984375 532.847656 Z M 510.921875 456.011719 C 509.410156 444.242188 506.171875 432.441406 501.269531 420.785156 C 504.914062 425.574219 509.707031 431.058594 515.796875 436.570312 C 525.925781 445.710938 537.652344 453.15625 550.625 458.683594 C 563.003906 463.953125 576.566406 467.46875 591.078125 469.207031 C 583.433594 470.011719 573.230469 471.738281 562.113281 475.339844 C 548.390625 479.792969 535.957031 486.207031 525.148438 494.402344 C 516.984375 500.589844 509.734375 507.824219 503.460938 516.003906 C 505.523438 510.820312 507.628906 504.433594 509.210938 497.113281 C 512.136719 483.648438 512.703125 469.828125 510.921875 456.011719 Z M 496.863281 276.128906 C 507.121094 275.632812 535.675781 278.671875 563.894531 296.234375 C 580.3125 306.449219 590.441406 318.023438 596.050781 325.933594 C 596.730469 326.894531 597.351562 327.8125 597.945312 328.703125 C 599.613281 332.859375 601.378906 336.375 603.160156 339.117188 C 601.773438 338.988281 599.667969 338.835938 596.96875 338.804688 C 575.070312 336.179688 555.117188 329.15625 533.34375 316.566406 C 514.113281 305.433594 498.824219 281.949219 495.335938 276.3125 C 495.746094 276.269531 496.253906 276.199219 496.863281 276.128906 Z M 718.570312 146.179688 C 721.253906 150.980469 730.535156 168.390625 733.335938 184.652344 C 736.65625 203.996094 736.65625 212.941406 733.335938 232.480469 C 731.640625 242.484375 727.230469 253.578125 723.824219 261.136719 C 721.339844 266.660156 719.007812 271.152344 717.75 273.5 C 717.128906 271.902344 716.039062 269.402344 714.359375 266.292969 C 713.453125 264.132812 712.464844 261.6875 711.449219 259.03125 C 708.167969 250.410156 704.058594 237.878906 703.070312 227.070312 C 702.363281 219.511719 701.570312 204.234375 704.128906 186.898438 C 706.445312 171.128906 710.882812 158.0625 717.339844 147.972656 C 717.835938 147.25 718.246094 146.644531 718.570312 146.179688 Z M 834.207031 338.691406 C 833.953125 338.691406 833.726562 338.691406 833.511719 338.707031 C 833.542969 338.664062 833.554688 338.636719 833.585938 338.59375 C 833.753906 338.621094 833.964844 338.652344 834.207031 338.691406 Z M 832.355469 465.621094 C 831.777344 466.339844 831.253906 466.90625 830.828125 467.328125 C 830.816406 467.203125 830.757812 467.074219 830.6875 466.960938 C 826.449219 460.449219 820.699219 447.746094 817.347656 424.246094 C 815.34375 410.132812 815.160156 398.6875 815.160156 398.574219 C 815.03125 382.664062 819.78125 367.644531 823.777344 357.851562 C 825.429688 353.8125 827.085938 350.320312 828.511719 347.511719 C 830.09375 344.980469 831.210938 342.945312 831.875 341.644531 C 841.835938 359.4375 847.429688 377.972656 848.519531 396.75 C 849.324219 410.710938 847.683594 424.996094 843.515625 440.414062 C 841.777344 446.8125 838.855469 455.714844 834.601562 462.425781 C 833.683594 463.710938 832.921875 464.785156 832.355469 465.621094 Z M 814.226562 548.800781 C 815.738281 561.882812 819.144531 574.839844 824.386719 587.445312 C 820.203125 581.113281 813.730469 572.664062 804.6875 564.371094 C 794.246094 554.777344 782.449219 547.246094 769.632812 541.960938 C 760.421875 538.175781 750.671875 535.5625 740.46875 534.132812 C 746.460938 533.242188 753.371094 531.773438 760.71875 529.414062 C 774.167969 525.078125 786.488281 518.621094 797.3125 510.199219 C 806.78125 502.835938 815.128906 493.964844 822.253906 483.691406 C 820.003906 489.667969 817.460938 497.75 815.683594 507.316406 C 813.125 521.0625 812.628906 535.023438 814.226562 548.800781 Z M 796.226562 508.714844 C 785.570312 516.996094 773.460938 523.367188 760.222656 527.632812 C 749.386719 531.125 739.539062 532.636719 732.21875 533.242188 C 728.585938 532.960938 724.898438 532.832031 721.167969 532.847656 C 729.578125 518.945312 740.273438 507.0625 752.988281 497.46875 C 763.671875 489.414062 775.78125 482.957031 789.003906 478.265625 C 802.910156 473.335938 815.144531 471.441406 822.535156 470.691406 C 824.441406 470.636719 826.351562 470.523438 828.257812 470.339844 C 828.003906 470.804688 827.691406 471.382812 827.339844 472.0625 C 819.101562 486.742188 808.644531 499.050781 796.226562 508.714844 Z M 621.683594 505.238281 C 619.449219 495.871094 616.355469 488.15625 613.671875 482.53125 C 619.082031 489.03125 626.640625 497.242188 635.9375 505.195312 C 647.566406 515.15625 659.621094 522.757812 671.730469 527.816406 C 680.855469 531.617188 690.042969 533.976562 699.183594 534.867188 C 692.527344 536.054688 684.460938 537.960938 675.757812 541.042969 C 662.347656 545.789062 650.054688 552.332031 639.21875 560.511719 C 629.296875 568.003906 620.582031 576.863281 613.203125 586.964844 C 618.984375 573.457031 622.644531 559.890625 624.128906 546.496094 C 625.679688 532.453125 624.863281 518.578125 621.683594 505.238281 Z M 622.261719 248.660156 C 620.992188 240.082031 619.039062 232.226562 616.554688 225.402344 C 627.828125 240.238281 637.761719 247.953125 644.132812 251.808594 C 662.773438 263.085938 684.660156 270.304688 702.6875 274.136719 C 696.175781 274.417969 687.949219 275.421875 678.765625 278.035156 C 665.765625 281.738281 653.402344 287.898438 642.058594 296.347656 C 632.351562 303.566406 623.363281 312.484375 615.195312 322.953125 C 617.8125 316.480469 620.355469 308.613281 621.839844 299.90625 C 624.609375 283.671875 624.761719 265.472656 622.261719 248.660156 Z M 643.101562 297.871094 C 654.265625 289.566406 666.402344 283.488281 679.175781 279.84375 C 695.734375 275.109375 709.144531 275.703125 714.667969 276.28125 C 715.148438 276.355469 715.617188 276.410156 716.082031 276.480469 C 707.152344 291.628906 695.917969 304.257812 682.679688 314.066406 C 671.800781 322.121094 659.550781 328.28125 646.253906 332.40625 C 629.382812 337.632812 615.054688 338.183594 608.769531 338.113281 C 608.472656 338.085938 608.175781 338.070312 607.878906 338.058594 C 608.894531 336.304688 610.265625 333.832031 611.75 330.765625 C 621.03125 317.5 631.558594 306.464844 643.101562 297.871094 Z M 814.734375 295.34375 C 815.808594 306.589844 819.339844 316.949219 822.832031 324.859375 C 822.179688 324.011719 821.488281 323.136719 820.769531 322.246094 C 813.746094 313.515625 802.328125 301.195312 787.761719 292.121094 C 773.164062 283.035156 754.855469 278.8125 742.066406 276.875 C 737.289062 276.15625 732.898438 275.675781 729.195312 275.378906 C 732.457031 274.914062 736.257812 274.277344 740.398438 273.441406 C 762.242188 269.035156 776.8125 262.335938 785.191406 257.503906 C 800.378906 248.746094 812.460938 235.871094 819.933594 226.617188 C 821.109375 225.164062 822.195312 223.761719 823.226562 222.40625 C 819.269531 231.761719 816.515625 242.03125 815.03125 253.109375 C 813.320312 265.839844 813.222656 279.660156 814.734375 295.34375 Z M 735.425781 318.445312 C 734.054688 309.035156 731.90625 300.289062 729.238281 293.152344 C 728.8125 292.039062 728.375 290.949219 727.9375 289.917969 C 729.207031 291.375 730.550781 292.886719 731.964844 294.4375 C 740.214844 303.453125 752.59375 315.5625 764.730469 322.105469 C 785.148438 333.082031 806.074219 337.660156 820.851562 339.554688 C 817.589844 339.910156 813.746094 340.429688 809.492188 341.195312 C 787.789062 345.066406 772.53125 351.960938 763.53125 357.074219 C 747.222656 366.34375 735.382812 378.738281 728.320312 387.496094 C 727.878906 388.046875 727.457031 388.585938 727.03125 389.121094 C 729.730469 383.046875 732.558594 375.515625 734.746094 366.925781 C 737.742188 355.140625 737.996094 336.121094 735.425781 318.445312 Z M 727.5 293.816406 C 730.128906 300.824219 732.246094 309.445312 733.601562 318.726562 C 736.144531 336.179688 735.90625 354.914062 732.96875 366.472656 C 729.320312 380.785156 723.882812 392.101562 720.335938 398.53125 C 719.175781 400.328125 718.285156 401.796875 717.691406 402.828125 C 716.917969 401.144531 715.488281 398.335938 713.285156 394.773438 C 704.074219 374.199219 701.019531 347.015625 704.441406 315.324219 C 705.769531 303.074219 715.164062 282.882812 717.75 277.5 C 718.738281 278.796875 720.503906 281.058594 722.851562 283.925781 C 724.53125 286.753906 726.085938 290.046875 727.5 293.816406 Z M 722.710938 414.878906 C 725.691406 420.445312 729.816406 429.546875 732.601562 441.21875 C 735.707031 454.34375 736.515625 467.992188 734.972656 481.8125 C 733.09375 498.640625 727.738281 515.75 719.007812 532.691406 C 718.003906 531.238281 716.238281 528.46875 714.21875 524.566406 C 711.347656 519.027344 707.363281 509.972656 704.695312 498.316406 C 701.683594 485.21875 700.90625 471.566406 702.390625 457.734375 C 704.183594 440.90625 709.328125 423.753906 717.691406 406.742188 C 718.03125 407.222656 718.457031 407.816406 718.964844 408.535156 C 719.980469 410.089844 721.296875 412.210938 722.710938 414.878906 Z M 615.113281 354.929688 C 618.644531 359.875 623.308594 365.523438 629.296875 371.207031 C 639.203125 380.585938 650.734375 388.21875 663.578125 393.882812 C 675.839844 399.296875 689.347656 402.898438 703.859375 404.664062 C 696.203125 405.46875 685.988281 407.179688 674.824219 410.8125 C 661.105469 415.261719 648.671875 421.675781 637.859375 429.871094 C 628.988281 436.597656 621.1875 444.550781 614.574219 453.609375 C 618.148438 445.230469 621.949219 434.605469 623.546875 424.304688 C 626.289062 406.558594 624.253906 376.222656 615.113281 354.929688 Z M 607.496094 468.316406 C 607.722656 467.910156 607.976562 467.414062 608.289062 466.835938 C 616.15625 452.746094 626.457031 440.820312 638.933594 431.355469 C 649.574219 423.285156 661.824219 416.972656 675.332031 412.578125 C 694.492188 406.347656 710.855469 405.808594 715.914062 405.808594 C 715.925781 405.808594 715.941406 405.808594 715.941406 405.808594 C 706.617188 421.070312 695.183594 433.828125 681.945312 443.746094 C 671.050781 451.914062 658.898438 458.203125 645.859375 462.410156 C 634.242188 466.171875 624.027344 467.554688 617.515625 468.050781 C 612.835938 468.417969 609.332031 468.390625 607.496094 468.316406 Z M 710.273438 289.691406 C 705.839844 300.472656 703.253906 309.019531 702.589844 315.109375 C 699.535156 343.300781 701.585938 367.996094 708.507812 387.765625 C 705.1875 383.285156 700.921875 378.285156 695.566406 373.226562 C 685.746094 363.972656 674.230469 356.371094 661.34375 350.648438 C 649.066406 345.191406 635.5 341.421875 620.878906 339.386719 C 627.941406 338.691406 636.898438 337.210938 646.707031 334.1875 C 660.214844 330.019531 672.664062 323.757812 683.726562 315.578125 C 694.210938 307.820312 703.449219 298.324219 711.292969 287.246094 C 710.96875 288.039062 710.628906 288.859375 710.273438 289.691406 Z M 660.539062 352.300781 C 673.242188 357.9375 684.574219 365.414062 694.238281 374.496094 C 702.488281 382.253906 708.097656 389.898438 711.644531 395.621094 C 712.929688 398.488281 714.34375 401.230469 715.855469 403.832031 C 697.035156 402.871094 679.726562 398.957031 664.382812 392.203125 C 651.734375 386.636719 640.375 379.144531 630.625 369.917969 C 616.894531 356.921875 610.25 344.078125 608.332031 339.9375 C 608.429688 339.9375 608.527344 339.9375 608.640625 339.9375 C 627.6875 341.320312 645.136719 345.460938 660.539062 352.300781 Z M 606.664062 340.742188 C 606.578125 340.644531 606.480469 340.542969 606.394531 340.429688 C 606.421875 340.390625 606.4375 340.359375 606.464844 340.316406 C 606.535156 340.460938 606.59375 340.601562 606.664062 340.742188 Z M 605.40625 342.125 C 610.507812 348.203125 616.964844 359.804688 620.59375 381.265625 C 623.082031 396.015625 623.503906 412.394531 621.710938 424.007812 C 619.070312 441.117188 610.222656 459.175781 606.675781 465.929688 C 606.378906 466.453125 606.097656 466.988281 605.800781 467.527344 C 601.023438 461.550781 596.742188 450.21875 593.648438 435.367188 C 590.726562 421.308594 589.183594 405.425781 589.539062 392.867188 C 590.132812 371.417969 602.453125 347.550781 605.40625 342.125 Z M 646.351562 464.207031 C 659.605469 459.9375 671.941406 453.566406 683.019531 445.257812 C 693.742188 437.21875 703.296875 427.355469 711.53125 415.839844 C 705.695312 429.800781 702.007812 443.804688 700.554688 457.59375 C 699.070312 471.636719 699.863281 485.515625 702.929688 498.808594 C 704.90625 507.429688 707.605469 514.648438 710.050781 520.117188 C 705.894531 514.238281 700.058594 507.0625 692.359375 499.984375 C 681.917969 490.386719 670.117188 482.859375 657.304688 477.574219 C 646.863281 473.277344 635.726562 470.492188 624.027344 469.222656 C 630.160156 468.417969 637.890625 466.933594 646.351562 464.207031 Z M 736.824219 481.953125 C 738.378906 467.921875 737.558594 454.046875 734.378906 440.707031 C 732.148438 431.339844 729.066406 423.625 726.367188 418.003906 C 731.78125 424.503906 739.339844 432.710938 748.636719 440.667969 C 760.265625 450.628906 772.316406 458.230469 784.425781 463.289062 C 793.554688 467.089844 802.738281 469.449219 811.882812 470.339844 C 805.226562 471.527344 797.15625 473.433594 788.453125 476.511719 C 775.046875 481.261719 762.753906 487.804688 751.914062 495.984375 C 741.996094 503.472656 733.277344 512.332031 725.902344 522.433594 C 731.667969 508.914062 735.339844 495.347656 736.824219 481.953125 Z M 785.160156 461.578125 C 773.222656 456.605469 761.355469 449.101562 749.867188 439.28125 C 735.144531 426.691406 724.816406 413.4375 720.546875 407.546875 C 720.152344 406.9375 719.796875 406.417969 719.488281 405.976562 C 720.152344 406.007812 720.816406 406.019531 721.507812 406.019531 C 722.964844 406.019531 724.503906 405.949219 726.101562 405.835938 C 741.429688 406.289062 755.914062 409.269531 769.222656 414.738281 C 781.828125 419.925781 793.429688 427.328125 803.714844 436.765625 C 818.535156 450.359375 826.335938 464.320312 828.453125 468.429688 C 827.199219 468.472656 825.148438 468.585938 822.449219 468.855469 C 810.101562 469.195312 797.582031 466.765625 785.160156 461.578125 Z M 805.042969 435.453125 C 794.601562 425.859375 782.800781 418.328125 769.988281 413.042969 C 759.175781 408.59375 747.605469 405.765625 735.453125 404.566406 C 753.710938 401.203125 776.925781 392.246094 795.589844 380.769531 C 807.867188 373.210938 816.8125 363.546875 822.449219 356.226562 C 822.324219 356.523438 822.210938 356.808594 822.082031 357.105469 C 818.011719 367.066406 813.179688 382.355469 813.308594 398.589844 C 813.308594 398.703125 813.492188 410.257812 815.511719 424.472656 C 817.53125 438.714844 820.445312 449.058594 823.382812 456.519531 C 819.214844 450.488281 813.167969 442.914062 805.042969 435.453125 Z M 822.238281 353.457031 C 816.8125 360.792969 807.628906 371.207031 794.628906 379.203125 C 782.390625 386.734375 767.683594 393.445312 753.242188 398.09375 C 743.027344 401.371094 733.714844 403.394531 726.101562 403.984375 C 723.855469 403.914062 721.59375 403.914062 719.304688 403.957031 C 719.925781 402.941406 720.828125 401.441406 721.917969 399.480469 C 723.796875 396.582031 726.425781 392.808594 729.800781 388.613281 C 736.769531 379.992188 748.425781 367.800781 764.460938 358.671875 C 780.511719 349.542969 797.976562 345.121094 809.789062 343.003906 C 819.410156 341.292969 826.957031 340.785156 830.179688 340.644531 C 829.445312 341.902344 828.300781 343.90625 826.957031 346.535156 C 825.671875 348.570312 824.117188 350.914062 822.238281 353.457031 Z M 830.050781 338.621094 C 815.9375 337.578125 790.375 333.789062 765.59375 320.464844 C 753.679688 314.066406 741.472656 302.097656 733.320312 293.195312 C 729.832031 289.382812 726.777344 285.792969 724.347656 282.839844 C 722.933594 280.480469 721.421875 278.417969 719.828125 276.679688 C 723.613281 276.777344 731.835938 277.171875 741.785156 278.683594 C 754.402344 280.605469 772.460938 284.761719 786.785156 293.675781 C 801.113281 302.59375 812.375 314.742188 819.300781 323.363281 C 823.410156 328.476562 826.503906 332.984375 828.496094 336.035156 C 829.105469 337.097656 829.640625 337.957031 830.050781 338.621094 Z M 596.335938 357.035156 C 592.589844 366.21875 588.054688 379.867188 587.6875 392.808594 C 587.332031 405.496094 588.886719 421.550781 591.839844 435.734375 C 593.367188 443.082031 595.203125 449.582031 597.238281 455.066406 C 593.125 449.3125 587.433594 442.40625 580.015625 435.578125 C 569.574219 425.984375 557.773438 418.453125 544.960938 413.171875 C 534.402344 408.832031 523.128906 406.019531 511.289062 404.777344 C 517.800781 403.84375 525.601562 402.25 534.023438 399.492188 C 547.53125 395.085938 559.980469 388.640625 571.027344 380.332031 C 581.46875 372.492188 590.667969 362.953125 598.496094 351.90625 C 597.804688 353.515625 597.070312 355.226562 596.335938 357.035156 Z M 672.464844 526.109375 C 660.523438 521.132812 648.65625 513.632812 637.167969 503.8125 C 622.445312 491.222656 612.117188 477.96875 607.851562 472.078125 C 607.398438 471.382812 607.003906 470.789062 606.664062 470.324219 C 624.507812 469.984375 641.28125 472.996094 656.539062 479.269531 C 669.144531 484.453125 680.746094 491.859375 691.03125 501.296875 C 705.851562 514.890625 713.652344 528.847656 715.773438 532.960938 C 714.515625 533.003906 712.464844 533.117188 709.765625 533.386719 C 697.402344 533.722656 684.882812 531.292969 672.464844 526.109375 Z M 845.3125 440.890625 C 849.535156 425.28125 851.191406 410.8125 850.371094 396.640625 C 849.492188 381.394531 845.679688 366.332031 839.039062 351.679688 C 840.578125 353.726562 842.316406 355.960938 844.210938 358.261719 C 857.675781 374.640625 868.964844 382.636719 876.070312 386.480469 C 894.214844 396.269531 913.375 401.753906 929.058594 404.199219 C 927.800781 404.3125 926.5 404.4375 925.144531 404.609375 C 913.996094 405.964844 897.335938 409.539062 881.328125 418.921875 C 865.347656 428.289062 852.53125 441.003906 844.589844 450.035156 C 843.179688 451.632812 841.878906 453.171875 840.675781 454.640625 C 842.230469 450.953125 843.8125 446.429688 845.3125 440.890625 Z M 832.296875 337.125 C 832.144531 337.378906 832 337.648438 831.847656 337.902344 C 831.421875 337.195312 830.816406 336.234375 830.066406 335.0625 C 825.996094 328.027344 818.253906 312.695312 816.570312 295.175781 C 813.292969 260.980469 817.828125 233.738281 830.445312 212.050781 C 831 211.1875 831.449219 210.453125 831.804688 209.875 C 834.785156 215.511719 845.550781 237.128906 848.746094 260.34375 C 850.894531 275.984375 847.953125 292.671875 845.113281 303.921875 C 842.148438 315.648438 837.851562 327.035156 833.289062 335.371094 C 832.652344 336.460938 832.328125 337.070312 832.296875 337.125 Z M 830.039062 209.140625 C 829.640625 209.773438 829.261719 210.410156 828.894531 211.0625 C 826.816406 214.324219 823.269531 219.550781 818.480469 225.488281 C 805.140625 242.003906 792.507812 251.144531 784.273438 255.894531 C 769.324219 264.511719 751.984375 269.203125 740.074219 271.605469 C 730.3125 273.585938 722.496094 274.390625 719.203125 274.671875 C 719.21875 274.644531 719.234375 274.617188 719.246094 274.585938 C 721.054688 271.367188 725.734375 263.539062 732.910156 254.777344 C 741.53125 244.25 755.601562 230.207031 773.71875 223.097656 C 798.105469 213.546875 823.085938 209.988281 830.039062 209.140625 Z M 712.707031 267.128906 C 714.089844 270.417969 715.277344 273.019531 715.996094 274.558594 C 715.6875 274.515625 715.347656 274.472656 714.953125 274.445312 C 695.582031 271.691406 667.871094 264.019531 645.082031 250.226562 C 631.433594 241.976562 619.988281 227.480469 613.277344 217.6875 C 611.707031 214.480469 609.984375 211.613281 608.132812 209.109375 C 611.722656 209.535156 619.492188 210.609375 629.257812 212.871094 C 651.835938 218.097656 667.476562 225.542969 676.632812 230.871094 C 693.121094 240.464844 703.140625 252.21875 708.636719 260.386719 C 710.273438 262.847656 711.617188 265.121094 712.707031 267.128906 Z M 606.125 209.945312 C 607.171875 211.710938 609.09375 214.863281 611.734375 218.734375 C 615.675781 226.84375 618.671875 237.171875 620.425781 248.929688 C 622.898438 265.558594 622.757812 283.546875 620.015625 299.597656 C 617.910156 311.917969 613.65625 322.542969 610.140625 329.804688 C 608.386719 332.308594 606.675781 334.890625 604.996094 337.546875 C 603.992188 335.359375 602.253906 331.96875 599.542969 327.800781 C 597.550781 322.796875 595.742188 316.917969 594.230469 310.503906 C 590.949219 296.515625 589.285156 280.675781 589.566406 265.910156 C 589.863281 249.59375 594.539062 234.855469 598.410156 225.359375 C 599.894531 221.714844 601.378906 218.535156 602.679688 215.949219 C 604.34375 213.335938 605.460938 211.273438 606.125 209.945312 Z M 596.714844 224.625 C 592.773438 234.277344 588.027344 249.265625 587.714844 265.882812 C 587.320312 287.417969 590.765625 307.507812 595.558594 322.175781 C 589.550781 314.304688 579.746094 303.933594 564.851562 294.664062 C 542.824219 280.960938 520.488281 275.984375 506.554688 274.65625 C 510.285156 273.992188 514.636719 273.132812 519.371094 271.988281 C 532.707031 268.765625 551.855469 262.675781 567.242188 251.980469 C 581.484375 242.074219 591.078125 231.660156 596.898438 224.160156 C 596.84375 224.3125 596.773438 224.46875 596.714844 224.625 Z M 596.828125 340.65625 C 598.933594 340.910156 601.054688 341.125 603.203125 341.292969 C 594.300781 356.3125 583.125 368.945312 569.96875 378.847656 C 559.089844 387.03125 546.824219 393.390625 533.527344 397.742188 C 519.171875 402.433594 506.652344 403.761719 499.363281 404.085938 C 497.667969 404.058594 495.957031 404.058594 494.246094 404.085938 C 504.691406 387.597656 516.855469 374.03125 530.417969 363.757812 C 541.582031 355.308594 553.71875 349.050781 566.507812 345.164062 C 579.167969 341.320312 589.976562 340.585938 596.828125 340.65625 Z M 494.148438 406.019531 C 494.433594 406.019531 494.742188 406.019531 495.097656 406.019531 C 496.199219 406.019531 497.640625 405.992188 499.347656 405.921875 C 515.328125 406.191406 530.390625 409.1875 544.210938 414.867188 C 556.8125 420.050781 568.414062 427.457031 578.699219 436.894531 C 593.308594 450.289062 601.109375 464.066406 603.34375 468.375 C 584.4375 467.429688 566.972656 463.597656 551.417969 456.984375 C 538.628906 451.558594 527.085938 444.242188 517.109375 435.242188 C 506.457031 425.632812 499.859375 416.125 496.410156 410.316406 C 495.6875 408.890625 494.925781 407.460938 494.148438 406.019531 Z M 533.65625 528.734375 C 546.910156 524.46875 559.242188 518.097656 570.320312 509.789062 C 581.046875 501.75 590.597656 491.886719 598.835938 480.371094 C 593 494.332031 589.3125 508.332031 587.855469 522.125 C 586.371094 536.167969 587.164062 550.042969 590.230469 563.339844 C 592.082031 571.363281 594.539062 578.175781 596.84375 583.488281 C 590.03125 575.023438 582.164062 567.480469 573.304688 560.953125 C 562.269531 552.828125 549.691406 546.242188 535.945312 541.394531 C 524.964844 537.523438 514.960938 535.390625 507.402344 534.21875 C 513.972656 533.570312 523.257812 532.085938 533.65625 528.734375 Z M 601.535156 589.097656 C 598.664062 583.558594 594.679688 574.5 592.011719 562.84375 C 589 549.746094 588.222656 536.097656 589.707031 522.265625 C 591.5 505.4375 596.644531 488.28125 605.011719 471.269531 C 605.347656 471.75 605.773438 472.34375 606.28125 473.050781 C 607.296875 474.605469 608.597656 476.738281 610.027344 479.394531 C 613.007812 484.960938 617.132812 494.0625 619.917969 505.734375 C 623.023438 518.859375 623.832031 532.507812 622.289062 546.328125 C 620.425781 563.113281 615.070312 580.183594 606.394531 597.082031 C 605.320312 595.316406 604.203125 593.578125 603.046875 591.882812 C 602.566406 591.035156 602.058594 590.101562 601.535156 589.097656 Z M 608.074219 598.054688 C 616.554688 583.871094 627.390625 571.746094 640.304688 561.996094 C 650.988281 553.945312 663.097656 547.484375 676.320312 542.796875 C 690.226562 537.863281 702.460938 535.96875 709.851562 535.222656 C 711.773438 535.164062 713.707031 535.050781 715.628906 534.855469 C 707.238281 550.285156 696.441406 563.183594 683.542969 573.230469 C 672.886719 581.511719 660.777344 587.882812 647.539062 592.148438 C 631.84375 597.207031 618.25 598.097656 611.339844 598.15625 C 609.984375 598.097656 608.882812 598.070312 608.074219 598.054688 Z M 648.019531 593.945312 C 661.472656 589.605469 673.792969 583.148438 684.617188 574.726562 C 695.101562 566.589844 704.199219 556.585938 711.785156 544.902344 C 705.824219 559.058594 702.109375 573.257812 700.722656 587.261719 C 699.339844 601.304688 700.269531 615.179688 703.492188 628.476562 C 705.625 637.25 708.480469 644.570312 711.050781 650.054688 C 703.183594 640.429688 694.324219 632.007812 684.585938 624.886719 C 673.226562 616.578125 660.652344 610.023438 647.214844 605.402344 C 637.605469 602.097656 628.972656 600.300781 622.503906 599.328125 C 629.566406 598.59375 638.414062 597.039062 648.019531 593.945312 Z M 724.476562 543.585938 C 722.3125 539.6875 720.449219 536.929688 719.347656 535.40625 C 719.898438 535.433594 721.199219 535.503906 723.160156 535.503906 C 725.394531 535.503906 728.472656 535.417969 732.203125 535.109375 C 745.160156 536.113281 757.453125 538.964844 768.882812 543.671875 C 781.488281 548.855469 793.089844 556.261719 803.375 565.699219 C 817.984375 579.09375 825.785156 592.871094 828.015625 597.179688 C 809.113281 596.234375 791.648438 592.402344 776.089844 585.792969 C 763.304688 580.367188 751.757812 573.046875 741.785156 564.046875 C 735.03125 557.96875 729.914062 551.921875 726.199219 546.835938 C 725.589844 545.636719 725.011719 544.5625 724.476562 543.585938 Z M 816.078125 548.644531 C 814.496094 535.066406 814.976562 521.304688 817.492188 507.738281 C 820.65625 490.699219 826.292969 478.222656 829.0625 472.796875 C 829.34375 472.289062 829.628906 471.792969 829.894531 471.285156 C 830.96875 473.25 833.105469 476.910156 836.453125 481.515625 C 845.199219 498.921875 848.082031 519.101562 848.207031 520.003906 C 849.804688 545.167969 844.761719 565.105469 840.253906 577.414062 C 836.523438 587.585938 832.523438 594.355469 830.816406 597.023438 C 822.945312 581.398438 817.984375 565.132812 816.078125 548.644531 Z M 929.398438 425.351562 C 920.339844 435.707031 905.703125 449.609375 887.445312 457.015625 C 869.175781 464.433594 855.074219 466.792969 846.46875 467.457031 C 839.941406 467.964844 835.492188 467.613281 833.398438 467.34375 C 833.511719 467.171875 833.640625 466.988281 833.78125 466.792969 C 834.515625 465.886719 835.335938 464.773438 836.210938 463.371094 C 838.488281 460.277344 841.792969 456.011719 846.003906 451.222656 C 853.847656 442.304688 866.519531 429.730469 882.289062 420.488281 C 898 411.277344 914.378906 407.757812 925.339844 406.429688 C 932.152344 405.609375 937.761719 405.496094 941.351562 405.554688 C 942.226562 405.609375 943.089844 405.652344 943.921875 405.695312 C 942.777344 407.320312 941.691406 409.074219 940.644531 410.921875 C 938 414.738281 934.214844 419.855469 929.398438 425.351562 Z M 943.722656 403.800781 C 943.089844 403.773438 942.3125 403.746094 941.40625 403.730469 C 924.492188 402.644531 899.910156 397.246094 876.960938 384.855469 C 870.011719 381.097656 858.933594 373.238281 845.664062 357.117188 C 839.601562 349.757812 835.25 343.269531 833.484375 340.558594 C 836.3125 340.515625 842.683594 340.613281 851.160156 341.902344 C 861.800781 343.527344 878.023438 347.410156 894.863281 356.738281 C 910.71875 365.511719 923.476562 378.257812 931.375 387.398438 C 934.964844 391.550781 937.902344 395.351562 940.121094 398.375 C 941.25 400.257812 942.453125 402.078125 943.722656 403.800781 Z M 930.613281 292.503906 C 922.21875 302.664062 907.820312 316.777344 886.894531 326.316406 C 869.785156 334.117188 856.121094 336.503906 847.683594 337.140625 C 841.128906 337.632812 836.609375 337.179688 834.574219 336.871094 C 834.671875 336.6875 834.769531 336.503906 834.871094 336.320312 C 836.4375 333.648438 839.96875 327.984375 845.507812 321.214844 C 852.601562 312.554688 864.542969 300.273438 881.074219 290.949219 C 897.621094 281.625 914.039062 277.484375 924.902344 275.648438 C 928.660156 275.011719 932.039062 274.601562 934.894531 274.332031 C 935.855469 274.375 936.800781 274.402344 937.71875 274.402344 C 939.554688 274.402344 941.292969 274.320312 942.933594 274.136719 C 942.167969 275.40625 941.054688 277.355469 939.738281 279.929688 C 937.578125 283.363281 934.566406 287.726562 930.613281 292.503906 Z M 943.074219 272.042969 C 941.394531 272.074219 938.550781 272.15625 934.835938 272.496094 C 928.125 272.171875 920.3125 270.730469 911.707031 268.214844 C 899.910156 264.753906 887.136719 259.484375 874.800781 252.941406 C 854.695312 242.300781 837.371094 215.328125 833.457031 208.914062 C 844.761719 209.097656 869.304688 213.789062 895.882812 226.601562 C 903.78125 230.417969 916.15625 238.429688 930.285156 255.003906 C 936.730469 262.578125 941.25 269.246094 943.074219 272.042969 Z M 843.628906 226.828125 C 856.488281 243.320312 867.199219 251.035156 873.925781 254.578125 C 886.371094 261.179688 899.257812 266.503906 911.183594 269.996094 C 916.679688 271.605469 921.867188 272.777344 926.65625 273.511719 C 925.992188 273.613281 925.328125 273.726562 924.636719 273.839844 C 913.613281 275.691406 896.957031 279.898438 880.15625 289.367188 C 863.355469 298.832031 851.230469 311.308594 844.027344 320.097656 C 842.585938 321.851562 841.285156 323.53125 840.113281 325.113281 C 842.710938 318.742188 845.042969 311.621094 846.878906 304.386719 C 849.761719 292.96875 852.742188 276.027344 850.554688 260.105469 C 848.460938 244.871094 843.148438 230.347656 838.855469 220.429688 C 840.296875 222.433594 841.890625 224.597656 843.628906 226.828125 Z M 773.039062 221.390625 C 754.558594 228.652344 740.242188 242.921875 731.484375 253.617188 C 729.464844 256.089844 727.640625 258.480469 726.015625 260.726562 C 729.660156 252.488281 733.5625 242.160156 735.15625 232.777344 C 738.476562 213.207031 738.476562 203.699219 735.15625 184.328125 C 733.207031 173.011719 728.191406 161.167969 724.347656 153.257812 C 726.015625 155.785156 728.050781 158.710938 730.410156 161.804688 C 742.136719 177.164062 752.664062 184.75 759.445312 188.425781 C 772.980469 195.757812 784.792969 200.972656 795.5625 204.347656 C 803.671875 206.890625 811.246094 208.445312 818.4375 209.011719 C 807.0625 211.003906 789.910156 214.777344 773.039062 221.390625 Z M 629.171875 207.078125 C 641.535156 205.054688 659.746094 200.378906 676.238281 189.554688 C 690.535156 180.171875 702.574219 166.960938 710.273438 157.339844 C 706.601562 165.734375 703.929688 175.523438 702.304688 186.617188 C 699.71875 204.152344 700.527344 219.59375 701.230469 227.226562 C 702.179688 237.398438 705.796875 249.011719 708.960938 257.605469 C 703.140625 249.394531 693.207031 238.375 677.566406 229.273438 C 660.777344 219.511719 642.269531 213.984375 629.679688 211.074219 C 624.902344 209.972656 620.59375 209.140625 617.003906 208.53125 C 620.46875 208.277344 624.609375 207.824219 629.171875 207.078125 Z M 493.769531 277.457031 C 501.722656 292.320312 506.640625 308.089844 508.378906 324.351562 C 509.820312 337.789062 509.097656 351.59375 506.242188 365.398438 C 502.257812 384.671875 495.152344 398.558594 492.664062 403.039062 C 485.316406 386.378906 480.796875 369.480469 479.199219 352.792969 C 477.886719 339.003906 478.550781 325.328125 481.191406 312.128906 C 484.003906 298.042969 488.511719 287.515625 491.492188 281.566406 C 492.226562 280.183594 492.992188 278.8125 493.769531 277.457031 Z M 508.039062 365.820312 C 510.933594 351.832031 511.667969 337.832031 510.214844 324.183594 C 508.871094 311.550781 505.636719 299.214844 500.578125 287.375 C 501.695312 288.902344 502.910156 290.511719 504.238281 292.179688 C 515.867188 306.902344 525.984375 314.433594 532.410156 318.164062 C 551.246094 329.058594 568.738281 335.824219 587.277344 339.214844 C 581.257812 339.765625 574.007812 340.96875 566.070312 343.382812 C 553.070312 347.328125 540.71875 353.671875 529.359375 362.246094 C 518.453125 370.484375 508.460938 380.8125 499.519531 393.050781 C 502.414062 386.226562 505.734375 376.898438 508.039062 365.820312 Z M 492.4375 406.953125 C 492.949219 407.957031 493.726562 409.410156 494.800781 411.21875 C 502.34375 426.027344 507.132812 441.132812 509.085938 456.195312 C 510.835938 469.789062 510.285156 483.394531 507.445312 496.632812 C 504.914062 508.417969 501 517.714844 498.160156 523.453125 C 498.078125 523.621094 497.992188 523.777344 497.921875 523.945312 C 496.3125 526.460938 494.769531 529.046875 493.328125 531.703125 C 485.175781 515.214844 480.046875 498.46875 478.070312 481.898438 C 476.445312 468.21875 476.9375 454.640625 479.566406 441.515625 C 481.898438 429.828125 485.515625 420.6875 488.144531 415.078125 C 489.925781 411.21875 491.507812 408.464844 492.4375 406.953125 Z M 610.464844 600.019531 C 610.703125 600.019531 610.957031 600.019531 611.210938 600.019531 C 613.019531 600.117188 615.28125 600.289062 617.953125 600.597656 C 624.523438 601.363281 634.824219 603.113281 646.621094 607.167969 C 659.890625 611.71875 672.292969 618.191406 683.5 626.386719 C 696.554688 635.921875 708 647.863281 717.59375 661.878906 C 717.90625 662.34375 718.171875 662.753906 718.429688 663.109375 C 718.554688 663.292969 718.683594 663.476562 718.808594 663.671875 C 713.863281 663.785156 698.011719 663.574219 678.9375 657.429688 C 665.441406 653.078125 653.007812 646.660156 641.957031 638.351562 C 628.5625 628.277344 617.191406 615.378906 608.105469 599.992188 C 608.726562 600.003906 609.53125 600.019531 610.464844 600.019531 Z M 726.734375 655.605469 C 730.199219 650.433594 736.160156 642.59375 744.933594 634.539062 C 754.8125 625.480469 766.15625 618.035156 778.675781 612.382812 C 793.921875 605.503906 810.933594 601.304688 829.289062 599.878906 C 827.535156 603.976562 821.332031 616.847656 807.855469 629.847656 C 798.316406 639.046875 787.054688 646.519531 774.367188 652.046875 C 758.910156 658.785156 741.304688 662.65625 721.988281 663.546875 C 722.792969 661.992188 724.347656 659.179688 726.734375 655.605469 Z M 777.925781 610.703125 C 765.238281 616.425781 753.722656 623.984375 743.707031 633.167969 C 736.289062 639.964844 730.863281 646.621094 727.214844 651.675781 C 732.882812 638.296875 736.429688 624.859375 737.8125 611.59375 C 739.269531 597.5625 738.308594 583.671875 734.960938 570.332031 C 733.40625 564.128906 731.46875 558.648438 729.535156 554.027344 C 732.585938 557.632812 736.203125 561.472656 740.484375 565.332031 C 750.613281 574.472656 762.34375 581.921875 775.3125 587.445312 C 789.625 593.535156 805.523438 597.292969 822.648438 598.664062 C 806.554688 600.527344 791.535156 604.554688 777.925781 610.703125 Z M 841.949219 578.132812 C 846.539062 565.644531 851.667969 545.394531 850.03125 519.863281 C 850.03125 519.847656 850.03125 519.820312 850.03125 519.804688 C 850.015625 519.722656 848.941406 511.738281 846.03125 501.523438 C 844.875 497.480469 843.332031 492.707031 841.3125 487.804688 C 844.945312 492.167969 849.4375 496.972656 854.878906 501.804688 C 865.503906 511.230469 877.625 518.886719 890.878906 524.566406 C 901.617188 529.160156 913.121094 532.464844 925.269531 534.445312 C 919.097656 535.207031 913.65625 536.523438 909.644531 537.695312 C 897.066406 541.367188 884.59375 547.527344 872.566406 556.007812 C 860.304688 564.652344 848.476562 575.746094 837.3125 589.070312 C 838.785156 586.046875 840.378906 582.386719 841.949219 578.132812 Z M 873.554688 557.558594 C 885.398438 549.195312 897.675781 543.121094 910.039062 539.503906 C 919.914062 536.605469 928.292969 535.757812 934.414062 535.660156 C 937.59375 536 940.8125 536.253906 944.078125 536.410156 C 934.878906 551.5 923.363281 564.101562 909.8125 573.894531 C 898.664062 581.960938 886.117188 588.136719 872.523438 592.277344 C 853.449219 598.085938 837.609375 598.167969 832.496094 598.011719 C 845.339844 581.339844 859.144531 567.746094 873.554688 557.558594 Z M 942.832031 528.847656 C 938.652344 520.894531 932.066406 505.761719 929.890625 486.164062 C 926.925781 459.429688 931.910156 430.324219 942.183594 411.96875 C 943.808594 409.625 944.996094 407.773438 945.703125 406.613281 C 948.175781 410.699219 955.863281 424.542969 958.589844 443.351562 C 960.269531 454.964844 961.824219 468.910156 960.511719 484.328125 C 959.011719 501.902344 954.152344 518.054688 945.703125 533.640625 C 945.082031 532.535156 944.132812 530.898438 942.832031 528.847656 Z M 941.660156 397.34375 C 936.136719 388.0625 932.265625 376.632812 930.117188 363.25 C 927.40625 346.210938 928.265625 330.441406 929.03125 322.542969 C 930.808594 304.175781 937.183594 289.054688 941.464844 280.664062 C 942.976562 278.246094 944.0625 276.296875 944.742188 275.039062 C 947.566406 280.832031 956.964844 301.179688 959.746094 320.832031 C 963.136719 344.78125 960.917969 359.324219 956.257812 375.046875 C 952.171875 388.8125 947.355469 399.296875 945.574219 402.996094 C 944.769531 401.753906 943.457031 399.804688 941.660156 397.34375 Z M 821.109375 165.746094 C 836.496094 172.261719 851.34375 180.316406 865.21875 189.695312 C 878.96875 198.992188 891.910156 209.660156 903.652344 221.417969 C 912.640625 230.402344 920.988281 240.082031 928.578125 250.285156 C 920.679688 241.550781 909.472656 231.140625 896.671875 224.964844 C 868.921875 211.570312 843.25 206.964844 832.3125 207.078125 C 830.007812 203.558594 813.859375 179.636719 792.664062 165.335938 C 779.863281 156.691406 764.617188 150.628906 750.390625 147.109375 C 774.75 149.921875 798.429688 156.152344 821.109375 165.746094 Z M 536.367188 221.402344 C 548.125 209.648438 561.050781 198.980469 574.800781 189.683594 C 588.691406 180.300781 603.527344 172.246094 618.914062 165.734375 C 638.382812 157.496094 658.574219 151.746094 679.304688 148.480469 C 670.710938 150.796875 661.667969 154.273438 654.066406 159.429688 C 642.960938 166.992188 631.53125 176.542969 621.878906 186.363281 C 613.742188 194.640625 607.667969 202.285156 605.449219 207.035156 C 590.074219 207.035156 575.71875 210.777344 566.335938 213.957031 C 556.332031 217.335938 549.707031 220.796875 549.269531 221.023438 C 536.324219 227.082031 526.167969 234.359375 518.351562 241.355469 C 524.019531 234.417969 530.039062 227.734375 536.367188 221.402344 Z M 480.710938 506.144531 C 467.175781 474.125 460.308594 440.117188 460.308594 405.046875 C 460.308594 369.992188 467.175781 335.964844 480.710938 303.949219 C 481.136719 302.929688 481.574219 301.929688 482.027344 300.910156 C 481.078125 304.1875 480.175781 307.777344 479.398438 311.648438 C 476.714844 325.03125 476.019531 338.90625 477.347656 352.878906 C 479.003906 370.1875 483.765625 387.695312 491.507812 404.945312 C 490.785156 406.050781 488.835938 409.1875 486.492188 414.1875 C 483.820312 419.882812 480.148438 429.164062 477.757812 441.019531 C 475.089844 454.34375 474.566406 468.132812 476.21875 482.007812 C 477.347656 491.476562 479.484375 500.984375 482.621094 510.480469 C 481.957031 509.066406 481.320312 507.613281 480.710938 506.144531 Z M 574.800781 620.421875 C 561.050781 611.125 548.109375 600.457031 536.367188 588.703125 C 528.570312 580.902344 521.25 572.582031 514.480469 563.835938 C 518.128906 567.4375 521.984375 570.800781 526.066406 573.894531 C 537.074219 582.246094 549.679688 588.757812 563.496094 593.222656 C 582.332031 599.3125 598.425781 599.933594 604.203125 599.933594 C 604.953125 599.933594 605.53125 599.921875 605.914062 599.921875 C 615.210938 615.972656 626.980469 629.410156 640.871094 639.851562 C 652.105469 648.285156 664.734375 654.800781 678.425781 659.207031 C 685.265625 661.414062 691.695312 662.855469 697.390625 663.800781 C 670.300781 661.484375 643.992188 654.96875 618.914062 644.359375 C 603.527344 637.859375 588.691406 629.789062 574.800781 620.421875 Z M 903.667969 588.703125 C 891.910156 600.457031 878.980469 611.125 865.234375 620.421875 C 851.34375 629.804688 836.507812 637.859375 821.121094 644.371094 C 793.613281 656.015625 764.632812 662.710938 734.777344 664.367188 C 749.414062 662.628906 762.964844 659.066406 775.1875 653.726562 C 788.074219 648.101562 799.53125 640.488281 809.226562 631.117188 C 823.863281 616.976562 830.066406 602.957031 831.335938 599.820312 C 832.058594 599.863281 833.316406 599.90625 835.039062 599.90625 C 841.933594 599.90625 856.261719 599.171875 873.019531 594.070312 C 886.808594 589.890625 899.554688 583.617188 910.886719 575.421875 C 917.21875 570.84375 923.109375 565.671875 928.550781 559.90625 C 920.945312 570.09375 912.625 579.742188 903.667969 588.703125 Z M 957.316406 510.734375 C 959.886719 502.273438 961.554688 493.566406 962.332031 484.46875 C 963.660156 468.871094 962.105469 454.78125 960.398438 443.070312 C 957.386719 422.398438 948.472656 407.546875 946.734375 404.792969 C 947.949219 402.359375 953.445312 391 958.023438 375.558594 C 962.757812 359.605469 965.003906 344.839844 961.570312 320.566406 C 960.183594 310.800781 957.203125 300.882812 954.179688 292.617188 C 955.988281 296.359375 957.699219 300.148438 959.308594 303.960938 C 972.84375 335.980469 979.710938 369.992188 979.710938 405.058594 C 979.710938 440.117188 972.84375 474.140625 959.308594 506.15625 C 958.671875 507.683594 958.007812 509.210938 957.316406 510.734375 Z M 957.316406 510.734375 "/></g></g></svg>